<svg width="1307" height="776" viewBox="0 0 1307 776" fill="none" xmlns="http://www.w3.org/2000/svg">
<path d="M413.64 402.7C405.62 390.65 390.15 384.38 376.48 388C372.78 388.98 369.14 390.62 365.33 390.46C355.16 390.03 349.92 378.19 343.46 370.03C334.38 358.56 319.07 352.8 305.01 355.58C300.51 356.47 296.18 358.01 291.66 358.81C287.72 359.5 283.51 358.4 279.7 357.21C275.39 355.87 271.26 354.03 267.13 352.2C263.33 350.51 259.53 348.81 255.59 347.49C251.75 346.2 247.72 345.28 243.71 345.72C232.54 346.92 229.36 359.47 223.05 367.16C216.85 374.72 207.78 378.53 198.26 380.7C197.58 379.75 196.89 378.81 196.19 377.92C185.3 364.16 165.99 348.26 148.3 355.22C142.59 357.47 136.84 364.21 130.72 363.86C124.79 363.52 119.54 360.16 114.27 357.43C102.84 351.49 91.0397 353.5 82.5897 363.41C76.2597 370.83 74.4597 378.48 65.5297 383.37C57.5597 387.74 48.3597 389.44 39.4397 390.53C29.0497 391.8 16.4597 393.08 6.87971 406.01C2.86971 411.43 -11.3703 443.72 25.4997 449.28C30.5397 450.04 30.2697 458.3 32.4897 462.95C37.2397 472.9 47.3497 479.85 58.0297 480.49C65.6797 480.95 73.0397 478.54 80.5997 478.01C88.8697 477.43 92.7797 479.75 99.8197 483.94C92.9197 489.93 81.1697 486.12 74.0197 491.81C72.1697 493.28 70.8197 495.26 69.4897 497.21C65.1497 503.59 60.7897 513.52 54.2097 517.74C48.5297 521.38 38.3497 522.66 31.7797 522.66C26.3397 522.97 20.7097 523.04 15.7397 525.36C10.7697 527.69 6.6197 533.03 7.4997 538.61C8.2397 543.26 12.2697 546.75 16.6097 548.13C32.1097 553.03 47.6297 543.04 62.6197 547.58C71.6797 550.33 66.9397 554.87 70.4297 562.2C75.1797 572.15 85.2897 579.1 95.9697 579.74C108.69 580.51 122.55 573.25 133.53 579.97C136.18 581.59 138.35 583.9 140.76 585.88C151.43 594.7 167 596.61 179.35 590.6C187.44 586.66 193.86 579.84 201.33 574.77C213.74 566.35 229.22 562.93 243.86 565.39C252.5 566.84 260.83 570.24 269.57 570.73C283.66 571.52 298 563.92 305.3 551.39C312.6 538.86 312.34 521.9 304.32 509.85C296.3 497.8 280.83 491.53 267.16 495.15C263.46 496.13 259.82 497.77 256.01 497.61C245.84 497.18 240.6 485.34 234.14 477.18C232.36 474.94 230.35 472.92 228.15 471.14C228.13 471.06 229.04 470.86 233.64 470.5C236.88 470.25 240.08 471.15 242.86 472.85C245.51 474.47 247.68 476.78 250.09 478.76C260.76 487.58 276.33 489.49 288.68 483.48C296.77 479.54 303.19 472.72 310.66 467.65C323.07 459.22 338.55 455.81 353.19 458.27C361.83 459.72 370.16 463.12 378.9 463.61C392.99 464.4 407.33 456.8 414.63 444.27C421.93 431.74 421.67 414.78 413.65 402.73" fill="#BEF097"/>
<path d="M566.06 188.72C613.97 188.72 652.81 149.88 652.81 101.97C652.81 54.06 613.97 15.22 566.06 15.22C518.15 15.22 479.31 54.06 479.31 101.97C479.31 149.88 518.15 188.72 566.06 188.72Z" fill="#FFCC1A"/>
<path d="M928.57 380.94C912.93 356.76 882.31 343.88 855 350.71C847.61 352.56 840.33 355.73 832.74 355.31C812.52 354.19 802.39 330.49 789.74 314.09C771.97 291.03 741.64 279.18 713.61 284.34C704.64 285.99 695.97 288.95 686.96 290.41C679.1 291.68 670.76 289.37 663.2 286.91C654.66 284.13 646.49 280.37 638.32 276.6C630.8 273.13 623.28 269.66 615.48 266.93C607.88 264.27 599.87 262.33 591.88 263.09C569.61 265.2 562.97 290.08 550.21 305.22C537.66 320.1 519.53 327.46 500.52 331.51C499.19 329.59 497.85 327.71 496.47 325.93C475.15 298.26 437.15 266.11 401.76 279.51C390.34 283.83 378.72 297.1 366.54 296.25C354.75 295.43 344.38 288.6 333.97 283.02C311.38 270.9 287.85 274.59 270.76 294.09C257.96 308.7 254.18 323.87 236.3 333.36C220.33 341.84 201.98 344.99 184.19 346.92C163.49 349.17 138.38 351.4 118.99 376.88C110.87 387.55 81.68 451.45 154.93 463.48C164.94 465.12 164.2 481.55 168.49 490.87C177.67 510.79 197.63 524.89 218.87 526.45C234.08 527.57 248.79 522.96 263.86 522.11C280.34 521.18 288.06 525.89 301.95 534.41C288.07 546.15 264.78 538.27 250.41 549.39C246.7 552.26 243.95 556.17 241.26 560.02C232.45 572.61 223.52 592.25 210.32 600.47C198.92 607.57 178.62 609.85 165.55 609.68C154.71 610.16 143.51 610.14 133.56 614.64C123.61 619.14 115.21 629.67 116.82 640.8C118.16 650.07 126.09 657.13 134.7 659.98C165.41 670.14 196.57 650.66 226.28 660.09C244.25 665.79 234.68 674.71 241.44 689.38C250.62 709.3 270.58 723.4 291.82 724.96C317.11 726.82 344.88 712.74 366.55 726.39C371.77 729.68 376.05 734.33 380.77 738.35C401.77 756.19 432.71 760.38 457.45 748.74C473.66 741.12 486.6 727.71 501.61 717.8C526.52 701.36 557.42 694.96 586.49 700.23C603.64 703.34 620.13 710.33 637.51 711.53C665.53 713.47 694.26 698.72 709.12 673.98C723.98 649.24 723.89 615.48 708.25 591.29C692.61 567.11 661.99 554.23 634.68 561.06C627.29 562.91 620.01 566.08 612.42 565.66C592.2 564.54 582.07 540.84 569.42 524.43C565.95 519.92 561.98 515.86 557.66 512.25C557.62 512.09 559.44 511.72 568.59 511.13C575.04 510.71 581.4 512.6 586.87 516.04C592.09 519.33 596.37 523.98 601.1 528C622.1 545.84 653.03 550.03 677.78 538.39C693.98 530.77 706.93 517.36 721.94 507.45C746.85 491.01 777.75 484.61 806.82 489.88C823.97 492.99 840.46 499.98 857.84 501.18C885.86 503.12 914.59 488.37 929.45 463.63C944.31 438.89 944.22 405.13 928.58 380.94" fill="#851F4A"/>
<path d="M1160 408.29C1144.56 385.16 1114.78 373.12 1088.45 380.05C1081.33 381.93 1074.32 385.08 1066.98 384.77C1047.4 383.94 1037.31 361.21 1024.87 345.54C1007.39 323.52 977.899 312.47 950.849 317.8C942.189 319.51 933.849 322.47 925.149 323.99C917.559 325.32 909.459 323.2 902.119 320.91C893.819 318.33 885.869 314.81 877.919 311.28C870.599 308.03 863.279 304.77 855.699 302.24C848.319 299.77 840.539 298.01 832.819 298.83C811.309 301.15 805.199 325.23 793.049 340C781.099 354.52 763.649 361.84 745.319 365.99C744.009 364.16 742.689 362.36 741.329 360.66C720.359 334.24 683.189 303.7 649.139 317.07C638.149 321.38 627.069 334.33 615.289 333.66C603.869 333.01 593.759 326.56 583.609 321.3C561.599 309.89 538.889 313.75 522.609 332.78C510.419 347.04 506.949 361.72 489.769 371.1C474.429 379.48 456.719 382.75 439.529 384.84C419.529 387.28 395.279 389.74 376.839 414.57C369.119 424.97 341.699 486.98 412.699 497.66C422.409 499.12 421.889 514.98 426.159 523.92C435.289 543.03 454.779 556.37 475.339 557.6C490.059 558.49 504.229 553.85 518.799 552.84C534.729 551.73 542.259 556.18 555.799 564.22C542.519 575.72 519.899 568.41 506.129 579.33C502.579 582.15 499.969 585.95 497.409 589.7C489.049 601.96 480.659 621.02 467.989 629.11C457.049 636.1 437.449 638.56 424.809 638.56C414.329 639.16 403.489 639.28 393.929 643.75C384.359 648.22 376.369 658.49 378.069 669.2C379.489 678.13 387.239 684.83 395.599 687.47C425.439 696.88 455.329 677.7 484.189 686.42C501.639 691.69 492.499 700.42 499.229 714.49C508.359 733.6 527.849 746.94 548.409 748.17C572.899 749.64 599.579 735.71 620.719 748.6C625.809 751.71 630.009 756.14 634.629 759.96C655.169 776.9 685.149 780.56 708.929 769.02C724.509 761.46 736.859 748.37 751.249 738.61C775.139 722.43 804.949 715.87 833.129 720.59C849.759 723.37 865.799 729.91 882.619 730.85C909.749 732.37 937.359 717.78 951.409 693.72C965.469 669.66 964.959 637.09 949.519 613.96C934.079 590.83 904.299 578.79 877.979 585.73C870.859 587.61 863.849 590.75 856.509 590.44C836.929 589.61 826.839 566.88 814.399 551.21C810.979 546.9 807.089 543.03 802.869 539.61C802.829 539.46 804.579 539.07 813.429 538.39C819.669 537.91 825.839 539.64 831.179 542.9C836.269 546.01 840.469 550.44 845.089 554.25C865.629 571.2 895.599 574.85 919.389 563.31C934.969 555.75 947.319 542.65 961.709 532.91C985.599 516.73 1015.41 510.17 1043.59 514.89C1060.22 517.68 1076.26 524.21 1093.08 525.15C1120.21 526.67 1147.82 512.08 1161.87 488.02C1175.93 463.96 1175.42 431.39 1159.98 408.26" fill="#D7BBF8"/>
<path d="M512.439 188.23C520.299 200.04 535.459 206.18 548.859 202.64C552.489 201.68 556.049 200.07 559.789 200.23C569.759 200.65 574.899 212.25 581.219 220.25C590.119 231.49 605.129 237.13 618.899 234.41C623.299 233.54 627.549 232.02 631.979 231.25C635.839 230.57 639.959 231.65 643.699 232.82C647.919 234.14 651.969 235.93 656.019 237.74C659.739 239.4 663.469 241.06 667.329 242.35C671.089 243.61 675.049 244.51 678.979 244.09C689.929 242.91 693.039 230.62 699.229 223.08C705.309 215.67 714.189 211.94 723.519 209.82C724.189 210.75 724.859 211.67 725.549 212.54C736.219 226.03 755.139 241.61 772.479 234.79C778.069 232.59 783.709 225.98 789.709 226.32C795.519 226.65 800.669 229.94 805.829 232.63C817.029 238.45 828.589 236.48 836.879 226.77C843.089 219.49 844.849 212 853.599 207.21C861.409 202.93 870.429 201.26 879.169 200.2C889.349 198.96 901.689 197.7 911.079 185.03C915.009 179.72 928.969 148.07 892.829 142.62C887.889 141.88 888.149 133.78 885.969 129.22C881.319 119.47 871.399 112.66 860.939 112.03C853.449 111.58 846.229 113.94 838.819 114.46C830.709 115.03 826.879 112.76 819.979 108.65C826.739 102.78 838.259 106.51 845.259 100.94C847.069 99.4999 848.399 97.5599 849.699 95.6499C853.949 89.3899 858.229 79.6699 864.669 75.5299C870.239 71.9599 880.219 70.71 886.649 70.71C891.979 70.4 897.499 70.3399 902.369 68.0599C907.239 65.7799 911.309 60.5399 910.439 55.07C909.719 50.51 905.769 47.0899 901.509 45.7399C886.319 40.9299 871.099 50.7299 856.419 46.2799C847.539 43.5899 852.189 39.1299 848.769 31.9599C844.119 22.2099 834.199 15.3999 823.739 14.7699C811.269 14.0199 797.689 21.1299 786.939 14.5499C784.349 12.9699 782.209 10.6999 779.859 8.74994C769.399 0.0999441 754.149 -1.76005 742.039 4.12995C734.109 7.98995 727.819 14.6699 720.489 19.6499C708.329 27.9099 693.159 31.2599 678.809 28.8499C670.339 27.4299 662.179 24.0899 653.619 23.6099C639.809 22.8399 625.759 30.2799 618.599 42.5599C611.449 54.8399 611.699 71.46 619.559 83.27C627.419 95.08 642.579 101.22 655.979 97.6799C659.609 96.7199 663.169 95.12 666.909 95.27C676.879 95.69 682.019 107.29 688.349 115.29C690.089 117.49 692.069 119.46 694.219 121.21C694.239 121.29 693.349 121.48 688.849 121.83C685.669 122.08 682.529 121.19 679.809 119.53C677.219 117.94 675.079 115.68 672.729 113.73C662.269 105.08 647.019 103.22 634.909 109.11C626.979 112.97 620.689 119.65 613.369 124.63C601.209 132.89 586.039 136.23 571.689 133.83C563.219 132.41 555.059 129.07 546.499 128.59C532.689 127.82 518.639 135.26 511.479 147.54C504.319 159.82 504.579 176.44 512.439 188.25" fill="#ADF088"/>
<path d="M746.729 223.23C736.299 207.57 716.189 199.41 698.409 204.11C693.599 205.38 688.869 207.51 683.909 207.3C670.689 206.74 663.869 191.35 655.469 180.74C643.669 165.83 626.959 157.18 608.689 160.8C596.869 162.95 589.849 172.67 583.969 173.7C578.839 174.6 572.149 171.55 564.619 166.18C548.919 154.96 537.749 150.21 517.799 152.97C494.169 156.24 476.799 173.99 466.669 194.6C465.779 193.36 464.889 192.14 463.979 190.99C449.819 173.1 424.719 152.42 401.719 161.48C394.299 164.4 386.819 173.17 378.859 172.71C371.149 172.27 364.319 167.9 357.469 164.34C342.609 156.62 327.269 159.23 316.279 172.11C308.039 181.76 305.709 191.7 294.099 198.06C283.739 203.74 271.779 205.95 260.169 207.37C246.669 209.02 230.289 210.69 217.829 227.5C212.609 234.54 194.099 276.53 242.049 283.76C248.609 284.75 248.259 295.49 251.139 301.54C257.309 314.48 270.469 323.51 284.349 324.35C294.289 324.95 303.859 321.81 313.699 321.13C324.459 320.38 329.539 323.39 338.689 328.84C329.719 336.63 314.439 331.68 305.149 339.07C302.749 340.98 300.989 343.55 299.259 346.09C293.619 354.39 287.949 367.29 279.389 372.78C271.999 377.51 258.769 379.18 250.229 379.18C243.149 379.59 235.829 379.67 229.369 382.69C222.909 385.72 217.509 392.67 218.659 399.93C219.619 405.97 224.859 410.52 230.499 412.3C250.649 418.67 270.839 405.68 290.329 411.59C302.119 415.16 295.939 421.07 300.489 430.59C306.659 443.53 319.819 452.56 333.699 453.4C350.239 454.4 368.259 444.97 382.529 453.69C385.969 455.79 388.799 458.8 391.929 461.38C405.799 472.85 426.039 475.33 442.109 467.51C452.629 462.39 460.969 453.52 470.689 446.92C486.819 435.96 506.949 431.52 525.989 434.72C537.219 436.61 548.049 441.03 559.419 441.67C577.739 442.7 596.389 432.82 605.879 416.53C615.379 400.24 615.029 378.19 604.599 362.52C594.169 346.85 574.059 338.7 556.279 343.4C551.469 344.67 546.739 346.8 541.779 346.59C528.559 346.03 521.739 330.64 513.339 320.03C511.029 317.11 508.409 314.49 505.549 312.17C505.519 312.07 506.709 311.81 512.679 311.34C516.889 311.01 521.059 312.19 524.669 314.39C528.109 316.49 530.939 319.5 534.069 322.08C547.939 333.55 568.179 336.03 584.249 328.21C594.769 323.09 603.109 314.22 612.829 307.62C628.959 296.67 649.089 292.22 668.129 295.42C679.359 297.31 690.189 301.73 701.549 302.37C719.869 303.4 738.519 293.52 748.009 277.23" fill="#D7BBF8"/>
<path d="M754.66 445.48C744.94 430.87 726.18 423.27 709.59 427.65C705.1 428.83 700.69 430.82 696.07 430.63C683.74 430.11 677.38 415.75 669.55 405.86C658.54 391.95 639.97 384.97 622.93 388.34C617.48 389.42 612.22 391.29 606.74 392.25C601.96 393.09 596.86 391.75 592.23 390.31C587.01 388.68 582 386.46 576.99 384.23C572.38 382.18 567.77 380.12 562.99 378.52C558.34 376.96 553.44 375.85 548.58 376.37C535.03 377.83 531.18 393.04 523.53 402.37C516 411.54 505.01 416.16 493.47 418.78C492.64 417.62 491.81 416.49 490.96 415.41C477.75 398.72 454.34 379.44 432.89 387.88C425.97 390.61 418.99 398.78 411.57 398.36C404.38 397.95 398.01 393.88 391.62 390.56C377.76 383.36 363.45 385.79 353.2 397.81C345.52 406.81 343.34 416.08 332.51 422.01C322.84 427.3 311.69 429.37 300.87 430.69C288.27 432.23 273 433.79 261.38 449.46C256.52 456.03 239.24 495.19 283.96 501.94C290.08 502.86 289.75 512.88 292.44 518.52C298.19 530.59 310.47 539.01 323.42 539.79C332.69 540.35 341.62 537.42 350.8 536.78C360.83 536.08 365.58 538.89 374.11 543.97C365.75 551.23 351.5 546.62 342.83 553.51C340.59 555.29 338.95 557.69 337.34 560.06C332.08 567.8 326.79 579.84 318.81 584.95C311.92 589.37 299.57 590.92 291.61 590.92C285.01 591.3 278.18 591.38 272.16 594.2C266.13 597.02 261.1 603.51 262.17 610.27C263.06 615.91 267.95 620.14 273.21 621.81C292 627.76 310.83 615.64 329.01 621.14C340 624.47 334.25 629.98 338.48 638.86C344.23 650.93 356.5 659.35 369.46 660.13C384.89 661.06 401.69 652.26 415 660.4C418.21 662.36 420.85 665.16 423.76 667.57C436.7 678.27 455.58 680.58 470.56 673.29C480.37 668.52 488.15 660.25 497.22 654.09C512.27 643.87 531.04 639.73 548.8 642.71C559.28 644.47 569.38 648.6 579.97 649.19C597.06 650.15 614.45 640.93 623.3 625.74C632.16 610.55 631.83 589.98 622.11 575.37C612.39 560.76 593.63 553.16 577.04 557.54C572.55 558.73 568.14 560.72 563.52 560.52C551.19 560 544.83 545.64 537 535.75C534.85 533.03 532.4 530.58 529.73 528.42C529.71 528.32 530.81 528.08 536.38 527.65C540.31 527.34 544.2 528.44 547.56 530.5C550.77 532.46 553.41 535.26 556.32 537.67C569.26 548.37 588.14 550.68 603.12 543.39C612.93 538.62 620.71 530.35 629.78 524.19C644.83 513.97 663.6 509.83 681.36 512.81C691.83 514.57 701.94 518.7 712.53 519.29C729.62 520.25 747.01 511.03 755.86 495.84C764.71 480.65 764.39 460.08 754.67 445.47" fill="#FF5200"/>
<path d="M1196.39 176.1C1186.3 160.93 1166.82 153.04 1149.61 157.59C1144.95 158.82 1140.37 160.88 1135.57 160.68C1122.77 160.14 1116.16 145.24 1108.03 134.96C1096.6 120.52 1077.32 113.27 1059.63 116.77C1053.97 117.89 1048.51 119.83 1042.82 120.83C1037.86 121.7 1032.56 120.31 1027.76 118.81C1022.34 117.12 1017.14 114.81 1011.94 112.5C1007.15 110.37 1002.37 108.23 997.41 106.57C992.58 104.95 987.5 103.79 982.45 104.34C968.38 105.86 964.39 121.65 956.44 131.33C948.63 140.85 937.22 145.65 925.23 148.37C924.37 147.17 923.51 145.99 922.62 144.87C908.91 127.55 884.6 107.52 862.33 116.29C855.15 119.12 847.9 127.61 840.19 127.17C832.72 126.75 826.11 122.52 819.48 119.07C805.09 111.59 790.24 114.12 779.59 126.6C771.62 135.95 769.35 145.57 758.12 151.73C748.09 157.23 736.5 159.37 725.27 160.74C712.19 162.34 696.33 163.95 684.28 180.23C679.23 187.05 661.3 227.71 707.73 234.71C714.08 235.67 713.74 246.06 716.54 251.92C722.51 264.45 735.25 273.19 748.7 274C758.33 274.58 767.59 271.54 777.12 270.88C787.54 270.16 792.46 273.07 801.32 278.34C792.64 285.88 777.84 281.09 768.84 288.24C766.52 290.09 764.81 292.58 763.14 295.04C757.67 303.08 752.19 315.57 743.9 320.88C736.75 325.47 723.93 327.08 715.66 327.08C708.81 327.47 701.72 327.55 695.47 330.48C689.22 333.41 683.99 340.14 685.1 347.17C686.03 353.02 691.1 357.42 696.57 359.15C716.08 365.32 735.63 352.74 754.5 358.46C765.91 361.92 759.94 367.64 764.33 376.86C770.3 389.39 783.04 398.13 796.49 398.94C812.51 399.91 829.95 390.77 843.77 399.22C847.1 401.26 849.84 404.16 852.87 406.67C866.3 417.78 885.9 420.17 901.45 412.61C911.64 407.65 919.71 399.07 929.13 392.68C944.75 382.07 964.24 377.77 982.67 380.87C993.54 382.7 1004.03 386.98 1015.03 387.6C1032.77 388.59 1050.82 379.03 1060.01 363.26C1069.2 347.49 1068.87 326.13 1058.77 310.97C1048.68 295.8 1029.2 287.91 1011.99 292.46C1007.33 293.69 1002.75 295.76 997.95 295.55C985.15 295.01 978.54 280.11 970.41 269.83C968.18 267.01 965.63 264.47 962.87 262.22C962.84 262.12 963.99 261.87 969.78 261.42C973.86 261.1 977.89 262.24 981.39 264.38C984.72 266.42 987.46 269.32 990.49 271.82C1003.92 282.93 1023.52 285.33 1039.07 277.76C1049.26 272.8 1057.33 264.22 1066.75 257.83C1082.37 247.22 1101.86 242.92 1120.29 246.02C1131.16 247.85 1141.65 252.13 1152.65 252.75C1170.39 253.74 1188.44 244.18 1197.63 228.41C1206.82 212.64 1206.49 191.28 1196.39 176.12" fill="#FFCC1A"/>
<path d="M853.57 269.61C844.99 256.72 828.44 250.01 813.8 253.88C809.84 254.93 805.95 256.68 801.86 256.51C790.98 256.05 785.37 243.38 778.45 234.65C768.74 222.38 752.35 216.22 737.31 219.19C732.5 220.14 727.86 221.79 723.03 222.64C718.81 223.38 714.31 222.2 710.23 220.92C705.62 219.48 701.2 217.52 696.78 215.55C692.71 213.74 688.65 211.92 684.43 210.51C680.32 209.13 676 208.15 671.71 208.61C659.76 209.9 656.36 223.32 649.6 231.55C642.96 239.64 633.26 243.72 623.07 246.03C622.34 245.01 621.61 244.01 620.86 243.06C609.2 228.33 588.54 211.31 569.62 218.77C563.51 221.17 557.35 228.39 550.8 228.02C544.45 227.66 538.83 224.07 533.19 221.13C520.96 214.77 508.34 216.92 499.29 227.53C492.51 235.47 490.59 243.66 481.04 248.89C472.51 253.56 462.67 255.38 453.12 256.55C442.01 257.91 428.52 259.28 418.28 273.12C413.99 278.92 398.75 313.47 438.21 319.43C443.61 320.24 443.32 329.08 445.69 334.06C450.77 344.71 461.59 352.14 473.02 352.83C481.2 353.32 489.08 350.74 497.18 350.18C506.03 349.56 510.22 352.04 517.75 356.52C510.37 362.93 497.79 358.86 490.14 364.94C488.17 366.51 486.71 368.63 485.3 370.72C480.65 377.55 475.99 388.17 468.95 392.69C462.87 396.59 451.98 397.96 444.95 397.96C439.13 398.29 433.1 398.36 427.79 400.85C422.47 403.34 418.03 409.06 418.98 415.04C419.77 420.02 424.08 423.75 428.73 425.22C445.31 430.47 461.93 419.77 477.97 424.63C487.67 427.57 482.59 432.43 486.33 440.27C491.41 450.92 502.23 458.35 513.66 459.04C527.27 459.86 542.1 452.1 553.85 459.28C556.68 461.01 559.01 463.48 561.58 465.61C573 475.05 589.66 477.09 602.88 470.66C611.54 466.45 618.4 459.15 626.41 453.72C639.69 444.7 656.26 441.05 671.92 443.68C681.16 445.23 690.08 448.87 699.43 449.4C714.51 450.25 729.85 442.11 737.67 428.71C745.48 415.3 745.2 397.15 736.62 384.26C728.04 371.37 711.49 364.66 696.85 368.53C692.89 369.58 689 371.33 684.92 371.16C674.04 370.7 668.43 358.03 661.51 349.3C659.61 346.9 657.45 344.74 655.1 342.83C655.08 342.74 656.05 342.53 660.97 342.15C664.44 341.88 667.87 342.85 670.83 344.66C673.66 346.39 675.99 348.86 678.56 350.99C689.98 360.43 706.64 362.47 719.86 356.04C728.52 351.83 735.38 344.53 743.39 339.1C756.67 330.08 773.23 326.43 788.9 329.06C798.14 330.61 807.06 334.25 816.41 334.78C831.49 335.62 846.83 327.49 854.65 314.09C862.46 300.68 862.18 282.53 853.6 269.64" fill="#005030"/>
<path d="M263.67 440.82C262.01 420.6 282.9 401.84 302.83 405.68C312.84 407.61 322.3 414.16 332.35 412.42C344.9 410.25 351.59 396.46 354.55 384.07C357.5 371.68 359.37 357.79 369 349.45C379.53 340.32 397.46 338.81 409.9 345.1C422.34 351.39 430.57 364.49 441.28 373.42C451.99 382.35 464.82 390.22 478.75 389.75C494.88 389.21 509.07 377.62 525.19 377.09C561.84 375.49 575.26 397.14 578.72 421.64C582.18 446.14 558.46 524.05 481.93 506.05C436.91 490.29 440.29 528.56 409.34 520.41C371.64 509.42 390.96 476.9 372.47 462.62C361.23 453.94 345.37 454.93 331.53 458.15C317.7 461.37 303.74 466.42 289.68 464.44C275.62 462.47 261.62 450.02 264.32 436.08" fill="#A28D24"/>
<path d="M716.17 123.58C702.92 118.5 687.49 124.23 677.22 134.02C666.95 143.81 660.78 157.02 654.82 169.89C649.79 180.77 644.77 191.64 639.74 202.52C636.31 209.94 632.83 217.57 632.31 225.72C631.79 233.87 634.9 242.79 641.97 246.89C644.89 248.58 648.68 249.31 651.61 247.63C654 246.26 655.32 243.64 657.15 241.59C659.96 238.44 663.96 236.65 667.83 234.96C685.85 227.07 704.25 219.09 723.82 217.1C747.71 214.68 771.47 221.36 795.36 223.8C801.67 224.45 808.73 224.57 813.53 220.43C817.24 217.23 818.74 212.06 818.7 207.16C818.57 192.65 806.84 180.78 794.23 173.62C781.62 166.45 767.35 162.2 755.68 153.59C747.17 147.31 740.41 138.96 732.24 132.24C724.08 125.52 713.62 120.31 703.21 122.16" fill="#FC5400"/>
<path d="M638.609 242.6C640.829 234.52 645.069 227 650.849 220.92C655.329 216.21 660.659 212.4 666.149 208.94C700.169 187.47 741.929 178.54 781.759 184.24C788.659 185.23 795.629 186.68 801.729 190.06C807.829 193.44 813.019 199 814.539 205.81C817.149 217.51 807.849 229.36 796.519 233.29C785.189 237.21 772.669 234.99 761.209 231.47C749.749 227.95 738.529 223.16 726.599 221.93C714.299 232.88 701.229 242.96 687.509 252.07C683.239 254.91 678.819 257.69 673.889 259.09C668.909 260.5 663.629 260.42 658.499 259.8C653.059 259.14 647.479 257.78 643.279 254.27C639.079 250.76 636.679 244.62 638.869 239.61" fill="#FC91B5"/>
<path d="M716.52 448.84C729.29 450.43 736.59 451.51 745.27 447C755.99 441.43 756.56 432.77 756.63 422.18C756.72 407.02 758.41 391.71 758.82 376.49C759.89 337.31 759.35 297.53 751.14 259.17C748.92 248.82 746.28 238.57 743.21 228.45C742.11 224.83 740.97 215.81 737.72 213.69C736.33 212.78 734.51 213.06 732.88 213.4C728.05 214.42 723.29 215.77 718.64 217.42C721.97 216.24 732.36 254.17 733.11 257.83C736.18 272.72 737.93 287.99 738.86 303.16C740.44 329.09 739.1 355.2 734.87 380.83C731.06 403.9 725.26 428.42 711.75 447.93" fill="#FC5400"/>
<path d="M852.8 252.35C861.52 249.01 871.68 252.78 878.43 259.22C885.18 265.66 889.25 274.35 893.17 282.83C896.48 289.99 899.79 297.15 903.09 304.3C905.35 309.18 907.64 314.2 907.98 319.57C908.32 324.94 906.28 330.8 901.62 333.5C899.7 334.61 897.21 335.09 895.28 333.99C893.71 333.09 892.84 331.37 891.64 330.01C889.79 327.94 887.16 326.76 884.61 325.65C872.75 320.46 860.64 315.2 847.76 313.9C832.04 312.3 816.4 316.7 800.68 318.31C796.53 318.74 791.88 318.82 788.72 316.09C786.28 313.98 785.29 310.58 785.32 307.36C785.4 297.81 793.12 290 801.42 285.28C809.72 280.57 819.11 277.77 826.79 272.1C832.39 267.97 836.84 262.47 842.22 258.05C847.59 253.63 854.47 250.2 861.32 251.41" fill="#FC5400"/>
<path d="M903.84 330.68C902.38 325.36 899.59 320.41 895.78 316.42C892.83 313.32 889.33 310.81 885.71 308.53C863.32 294.4 835.84 288.53 809.62 292.27C805.08 292.92 800.49 293.88 796.48 296.1C792.46 298.32 789.05 301.98 788.05 306.46C786.33 314.16 792.45 321.96 799.91 324.54C807.37 327.12 815.61 325.66 823.15 323.34C830.69 321.03 838.08 317.87 845.92 317.06C854.02 324.26 862.62 330.9 871.64 336.89C874.45 338.76 877.36 340.59 880.6 341.51C883.88 342.44 887.35 342.39 890.73 341.98C894.31 341.55 897.98 340.65 900.75 338.34C903.51 336.03 905.1 331.99 903.65 328.69" fill="#FC91B5"/>
<path d="M852.569 466.4C846.599 468.8 839.679 471.15 833.969 468.18C826.919 464.52 826.219 455.82 826.179 448.85C826.119 438.88 825.009 428.8 824.739 418.78C824.039 393 824.389 366.81 829.799 341.57C831.259 334.76 832.999 328.01 835.019 321.35C835.739 318.97 836.489 313.03 838.629 311.63C839.549 311.03 840.749 311.21 841.809 311.44C844.989 312.11 848.119 313 851.179 314.09C848.989 313.31 842.149 338.28 841.659 340.68C839.639 350.48 838.479 360.53 837.879 370.51C836.839 387.58 837.719 404.76 840.499 421.63C843.009 436.81 846.819 452.95 855.719 465.79" fill="#FC5400"/>
<path d="M370.1 284.06C370.59 279.72 372.34 274.93 375.38 270.86C377.41 268.14 380.44 266 383.97 264.95C388.64 263.56 393.39 262.38 398.4 262.12C400.31 262.02 401.67 260.89 402.88 259.68C408.81 253.75 415.09 248.12 422.48 243.86C428.65 240.3 434.87 236.78 441.55 233.92C445.77 232.11 450.12 230.62 454.38 228.95C459.12 227.09 464.28 226.37 469.42 225.78C476.38 224.99 483.38 224.65 490.5 224.77C500.94 224.94 511.2 226.66 521.33 229.15C529.09 231.05 536.83 233.34 544.29 236.52C550.55 239.19 556.78 242 562.64 245.35C566.77 247.72 570.8 250.48 574.65 253.41C586.65 262.56 597.07 273.76 604.85 286.47C608.76 292.87 611.99 299.63 614.43 306.62C615.61 310.02 617 313.72 617.45 317.26C617.83 320.27 617.56 323.3 618.42 326.3C618.87 327.88 619.55 329.53 620.97 330.56C626.55 334.58 633.88 339.39 636.36 345.91C638.14 350.6 637.07 355.88 634.35 359.88C631.74 363.72 627.43 367.13 622.92 368.69C618.97 370.06 613.89 370.01 610.85 373.12C605.81 378.27 592.76 390.24 586.95 394.59C580.32 399.56 572.99 403.49 565.28 406.77C558.49 409.66 551.27 411.68 543.89 413.21C534.38 415.19 524.61 415.55 514.8 415.23C507.92 415.01 501.02 413.94 494.15 412.69C481.46 410.38 469.25 406.38 457.46 401.08C426.85 387.31 396.1 357.48 388.53 324.8C387.88 321.97 385.43 320.48 383.18 318.95C379.09 316.15 375.61 312.77 372.45 309.11C368.94 305.05 368.04 300.3 368.23 295.38C368.37 291.79 369.03 288.31 370.1 284.08" fill="#FBED5A"/>
<path d="M336.95 167.35C346.19 174.45 355.69 181.24 365.29 187.68C372.03 192.21 378.91 196.71 384.22 202.76C397.53 217.94 398.64 240.65 392.51 260.11C332.96 259.23 316.66 207.94 336.95 167.34" fill="#ADF088"/>
<path d="M1298.5 500.55C1288.26 485.16 1268.5 477.15 1251.03 481.77C1246.3 483.02 1241.66 485.11 1236.78 484.91C1223.79 484.36 1217.09 469.24 1208.84 458.81C1197.24 444.16 1177.68 436.81 1159.73 440.36C1153.99 441.5 1148.45 443.47 1142.68 444.48C1137.64 445.36 1132.27 443.95 1127.4 442.43C1121.9 440.71 1116.62 438.37 1111.35 436.02C1106.49 433.86 1101.64 431.69 1096.61 430C1091.71 428.36 1086.55 427.18 1081.43 427.73C1067.16 429.27 1063.1 445.29 1055.04 455.12C1047.11 464.78 1035.54 469.65 1023.37 472.41C1022.5 471.19 1021.62 469.99 1020.73 468.86C1006.82 451.28 982.149 430.97 959.559 439.86C952.269 442.73 944.919 451.34 937.099 450.9C929.519 450.47 922.809 446.18 916.079 442.68C901.479 435.09 886.409 437.65 875.609 450.32C867.519 459.8 865.219 469.57 853.819 475.81C843.639 481.39 831.889 483.56 820.489 484.95C807.219 486.57 791.129 488.21 778.899 504.73C773.779 511.65 755.579 552.9 802.689 560.01C809.129 560.98 808.789 571.53 811.619 577.48C817.679 590.19 830.609 599.07 844.249 599.89C854.019 600.48 863.419 597.4 873.089 596.72C883.659 595.98 888.649 598.94 897.639 604.29C888.829 611.94 873.819 607.08 864.689 614.34C862.329 616.22 860.599 618.75 858.909 621.24C853.359 629.4 847.789 642.07 839.389 647.46C832.129 652.11 819.129 653.75 810.739 653.75C803.789 654.15 796.599 654.23 790.249 657.2C783.899 660.17 778.599 667 779.729 674.13C780.669 680.07 785.819 684.53 791.359 686.29C811.159 692.55 830.989 679.79 850.139 685.59C861.719 689.1 855.659 694.91 860.119 704.26C866.179 716.97 879.109 725.85 892.749 726.67C908.999 727.65 926.699 718.38 940.729 726.96C944.109 729.03 946.889 731.98 949.959 734.51C963.589 745.78 983.479 748.21 999.259 740.54C1009.6 735.51 1017.79 726.8 1027.34 720.31C1043.19 709.55 1062.97 705.19 1081.67 708.32C1092.71 710.17 1103.35 714.52 1114.51 715.15C1132.51 716.16 1150.83 706.45 1160.16 690.45C1169.49 674.45 1169.15 652.78 1158.91 637.39C1148.67 622 1128.91 613.99 1111.44 618.61C1106.71 619.86 1102.07 621.95 1097.19 621.75C1084.2 621.2 1077.5 606.08 1069.25 595.65C1066.98 592.79 1064.4 590.21 1061.6 587.93C1061.57 587.83 1062.74 587.57 1068.61 587.12C1072.75 586.8 1076.84 587.95 1080.39 590.12C1083.77 592.19 1086.55 595.14 1089.62 597.67C1103.25 608.94 1123.14 611.38 1138.92 603.7C1149.26 598.67 1157.45 589.96 1167 583.47C1182.85 572.71 1202.63 568.34 1221.33 571.48C1232.36 573.33 1243.01 577.68 1254.17 578.31C1272.17 579.32 1290.49 569.61 1299.81 553.61C1309.14 537.61 1308.8 515.94 1298.56 500.55" fill="#FFF3E0"/>
<path d="M886.32 561.38C883.81 561.7 881.38 562.43 878.88 562.8C871.07 563.96 862.77 560.38 858.05 553.81C854.69 549.14 852.1 542.48 846.5 541.97C844.4 541.78 842.36 542.59 840.29 543.03C832.66 544.66 824.29 540.79 820.17 533.94C816.05 527.09 816.32 517.73 820.66 511.02C825 504.31 833.09 500.51 840.83 501.32C845.64 501.82 850.14 503.92 854.87 504.95C857.67 505.56 860.54 505.77 863.39 505.61C861.29 504.54 859.34 503.16 857.63 501.5C856.12 500.03 854.78 498.36 853.09 497.13C846.07 492.02 836.41 496.11 827.91 494.89C820.78 493.86 814.35 488.64 811.68 481.7C810.43 478.45 809.9 474.78 807.7 472.14C804.46 468.24 798.84 467.92 793.87 467.89C787.1 467.86 780.32 467.82 773.55 467.79C770.49 467.77 767.36 467.74 764.51 466.58C761.67 465.42 759.15 462.85 758.89 459.69C758.58 455.9 761.65 452.54 765.1 451.26C768.55 449.98 772.33 450.25 776 450.34C783.29 450.53 791.35 449.6 796.33 444.07C797.72 442.52 798.8 440.69 800.24 439.18C805.19 433.99 813.04 433.79 820.08 433.51C829.1 433.16 838.87 431.77 845.26 425.15C849.89 420.34 852.67 412.11 860.22 411.92C862.93 411.85 865.59 412.69 868.1 413.77C870.67 414.87 873.13 416.22 875.6 417.57C878.27 419.03 880.95 420.49 883.77 421.63C886.27 422.64 889.03 423.61 891.71 423.37C894.78 423.09 897.77 422.3 900.83 421.95C910.4 420.87 920.37 425.58 925.87 433.78C929.78 439.61 932.69 447.85 939.48 448.7C942.03 449.02 944.56 448.12 947.09 447.67C948.03 447.5 948.98 447.42 949.94 447.39C947.83 431.14 941.22 415.53 930.11 403.96C909.46 382.45 883.23 379.62 861.23 386.14C860.75 386.28 857.19 381.49 855.74 379.88C853.09 376.94 848.91 374.97 845.4 373.36C837.92 369.92 829.68 368.22 821.5 368.54C785.91 369.92 757.99 407.66 753.03 441.83C748.99 469.64 758.99 488.39 764.88 514.01C775.95 562.19 802.47 580.72 842.28 582.17C862.41 582.9 877.89 574.12 891.91 562.26C890.1 561.64 888.16 561.15 886.3 561.39" fill="#FC030F"/>
<path d="M950.61 463.04C950.86 457.82 950.63 452.57 949.96 447.37C949.01 447.41 948.06 447.49 947.11 447.65C944.58 448.1 942.05 449 939.5 448.68C932.7 447.83 929.79 439.59 925.89 433.76C920.39 425.56 910.42 420.85 900.85 421.93C897.79 422.28 894.8 423.07 891.73 423.35C889.05 423.59 886.29 422.62 883.79 421.61C880.97 420.47 878.29 419.01 875.62 417.55C873.16 416.2 870.7 414.85 868.12 413.75C865.61 412.67 862.95 411.83 860.24 411.9C852.68 412.09 849.91 420.32 845.28 425.13C838.9 431.76 829.13 433.14 820.1 433.49C813.07 433.76 805.21 433.96 800.27 439.16C798.83 440.67 797.75 442.5 796.36 444.05C791.38 449.58 783.32 450.5 776.03 450.32C772.36 450.23 768.58 449.96 765.13 451.24C761.68 452.53 758.61 455.88 758.92 459.67C759.17 462.83 761.7 465.4 764.54 466.56C767.38 467.72 770.52 467.75 773.57 467.77C780.34 467.81 787.12 467.84 793.89 467.87C798.86 467.9 804.47 468.22 807.72 472.12C809.92 474.76 810.46 478.43 811.7 481.68C814.37 488.62 820.8 493.84 827.93 494.87C836.42 496.09 846.09 492 853.11 497.11C854.8 498.34 856.14 500.01 857.65 501.48C859.36 503.14 861.31 504.52 863.41 505.59C860.56 505.75 857.69 505.54 854.89 504.93C850.16 503.9 845.66 501.8 840.85 501.3C833.11 500.49 825.01 504.29 820.68 511.01C816.35 517.72 816.07 527.07 820.19 533.93C824.31 540.78 832.68 544.65 840.31 543.03C842.37 542.59 844.42 541.78 846.52 541.97C852.11 542.48 854.71 549.14 858.07 553.81C862.79 560.37 871.09 563.95 878.9 562.8C881.4 562.43 883.83 561.69 886.34 561.38C888.2 561.15 890.14 561.63 891.95 562.25C899.04 556.26 905.75 549.49 912.51 542.76C933.62 521.73 949.18 493.86 950.63 463.05" fill="#A28D24"/>
<path d="M861.14 403.65C861.14 403.65 861.46 365.68 861.53 358.97C861.63 349.32 861.48 348.08 861.48 348.08L870.63 348.87L866.49 403.94L861.14 403.65Z" fill="#B28F45"/>
<path d="M971.439 349.14C964.659 358.62 958.219 368.36 952.109 378.17C947.819 385.06 943.559 392.1 937.689 397.62C922.989 411.45 900.329 413.35 880.659 407.9C879.469 348.35 930.149 330.28 971.429 349.14" fill="#ADF088"/>
<path d="M522.13 526.1C526.78 519.39 536.48 517.74 540.43 510.56C533.71 512.46 526.73 513.38 519.77 513.28L517.19 512.71C514.1 509.7 512.42 503.42 511.05 499.45C509.62 495.28 508.65 491.16 507.35 486.97C504.62 478.22 499.26 470.42 492.81 463.99C485.35 456.55 476.77 450.07 467.48 445.09C458.96 440.52 450.83 436.78 440.82 438.38C425.28 440.86 416.06 452.93 413.7 467.85C412.56 475.08 411.49 482.36 414.23 489.32C416.94 496.22 422.13 502.06 428.17 506.26C438.26 513.27 451.66 517.48 463.36 520.7C470.15 522.57 485.38 532.83 484.64 532.16C487.3 534.82 489.4 538.43 491.68 541.45C494.43 545.08 497.23 548.66 500 552.27C502.97 556.14 503.56 558.47 507.58 561.12C506.9 558.17 500.85 540.47 501.07 540.69C501.16 540.78 514.19 561.74 515.05 561.66C518.1 561.56 523.47 561.98 525.95 559.96C526.59 559.44 527.59 558.39 527.57 557.53C527.54 556.67 526.66 556.05 525.86 555.89C522.97 555.3 521.23 555.18 520.25 552.76C518.43 546.89 517.98 540.57 519.04 534.5C519.55 531.53 520.44 528.57 522.14 526.12" fill="#FC91B5"/>
<path d="M632.63 508.72C631.12 517.81 599.04 532.83 580.34 521.37C579.26 520.71 578.16 520.04 577.1 519.22C577.1 519.22 560.74 500.2 555.44 493.77C549.59 486.67 528.22 470.61 525.53 469.6C525 468.69 549.01 462.58 548.83 462.61C544.97 463.26 520.44 459.9 519.89 457C519.35 454.13 520.2 449.83 522.03 447.54C523.09 446.22 525.69 446.84 526.39 448.07C526.75 448.52 526.84 449.16 527.21 449.61C527.74 450.25 531.08 450.3 531.89 450.28C535.31 450.2 538.73 449.78 542.08 449.02C541.53 443.61 548.3 438.18 553.57 445.18L553.06 444.44C556.45 443.77 575.71 459.73 575.8 460.41C575.87 460.92 576.28 461.3 576.66 461.63C577.86 462.67 579.05 463.7 580.25 464.74C584.46 462.97 616.63 449.85 635.71 455.04C643.88 457.26 647.77 460.88 649.6 464.86C650.13 466.01 650.49 467.18 650.72 468.37C652.71 475.96 653.11 486.7 653.12 496.8C653.12 506.63 636.64 506.46 632.64 508.7" fill="#FC91B5"/>
</svg>
