<svg width="1311" height="780" xmlns="http://www.w3.org/2000/svg"><path fill="#bef097" d="M415.64 404.37c-8.02-12.05-23.49-18.32-37.16-14.7-3.7.98-7.34 2.62-11.15 2.46-10.17-.43-15.41-12.27-21.87-20.43-9.08-11.47-24.39-17.23-38.45-14.45-4.5.89-8.83 2.43-13.35 3.23-3.94.69-8.15-.41-11.96-1.6-4.31-1.34-8.44-3.18-12.57-5.01-3.8-1.69-7.6-3.39-11.54-4.71-3.84-1.29-7.87-2.21-11.88-1.77-11.17 1.2-14.35 13.75-20.66 21.44-6.2 7.56-15.27 11.37-24.79 13.54-.68-.95-1.37-1.89-2.07-2.78-10.89-13.76-30.2-29.66-47.89-22.7-5.71 2.25-11.46 8.99-17.58 8.64-5.93-.34-11.18-3.7-16.45-6.43-11.43-5.94-23.23-3.93-31.68 5.98-6.33 7.42-8.13 15.07-17.06 19.96-7.97 4.37-17.17 6.07-26.09 7.16-10.39 1.27-22.98 2.55-32.56 15.48-4.01 5.42-18.25 37.71 18.62 43.27 5.04.76 4.77 9.02 6.99 13.67 4.75 9.95 14.86 16.9 25.54 17.54 7.65.46 15.01-1.95 22.57-2.48 8.27-.58 12.18 1.74 19.22 5.93-6.9 5.99-18.65 2.18-25.8 7.87-1.85 1.47-3.2 3.45-4.53 5.4-4.34 6.38-8.7 16.31-15.28 20.53-5.68 3.64-15.86 4.92-22.43 4.92-5.44.31-11.07.38-16.04 2.7-4.97 2.33-9.12 7.67-8.24 13.25.74 4.65 4.77 8.14 9.11 9.52 15.5 4.9 31.02-5.09 46.01-.55 9.06 2.75 4.32 7.29 7.81 14.62 4.75 9.95 14.86 16.9 25.54 17.54 12.72.77 26.58-6.49 37.56.23 2.65 1.62 4.82 3.93 7.23 5.91 10.67 8.82 26.24 10.73 38.59 4.72 8.09-3.94 14.51-10.76 21.98-15.83 12.41-8.42 27.89-11.84 42.53-9.38 8.64 1.45 16.97 4.85 25.71 5.34 14.09.79 28.43-6.81 35.73-19.34 7.3-12.53 7.04-29.49-.98-41.54s-23.49-18.32-37.16-14.7c-3.7.98-7.34 2.62-11.15 2.46-10.17-.43-15.41-12.27-21.87-20.43a38.89 38.89 0 0 0-5.99-6.04c-.02-.08.89-.28 5.49-.64 3.24-.25 6.44.65 9.22 2.35 2.65 1.62 4.82 3.93 7.23 5.91 10.67 8.82 26.24 10.73 38.59 4.72 8.09-3.94 14.51-10.76 21.98-15.83 12.41-8.43 27.89-11.84 42.53-9.38 8.64 1.45 16.97 4.85 25.71 5.34 14.09.79 28.43-6.81 35.73-19.34 7.3-12.53 7.04-29.49-.98-41.54"/><path fill="#ffcc1a" d="M568.06 190.39c47.91 0 86.75-38.84 86.75-86.75s-38.84-86.75-86.75-86.75-86.75 38.84-86.75 86.75 38.84 86.75 86.75 86.75"/><path fill="#851f4a" d="M930.57 382.61c-15.64-24.18-46.26-37.06-73.57-30.23-7.39 1.85-14.67 5.02-22.26 4.6-20.22-1.12-30.35-24.82-43-41.22-17.77-23.06-48.1-34.91-76.13-29.75-8.97 1.65-17.64 4.61-26.65 6.07-7.86 1.27-16.2-1.04-23.76-3.5-8.54-2.78-16.71-6.54-24.88-10.31-7.52-3.47-15.04-6.94-22.84-9.67-7.6-2.66-15.61-4.6-23.6-3.84-22.27 2.11-28.91 26.99-41.67 42.13-12.55 14.88-30.68 22.24-49.69 26.29-1.33-1.92-2.67-3.8-4.05-5.58-21.32-27.67-59.32-59.82-94.71-46.42-11.42 4.32-23.04 17.59-35.22 16.74-11.79-.82-22.16-7.65-32.57-13.23-22.59-12.12-46.12-8.43-63.21 11.07-12.8 14.61-16.58 29.78-34.46 39.27-15.97 8.48-34.32 11.63-52.11 13.56-20.7 2.25-45.81 4.48-65.2 29.96-8.12 10.67-37.31 74.57 35.94 86.6 10.01 1.64 9.27 18.07 13.56 27.39 9.18 19.92 29.14 34.02 50.38 35.58 15.21 1.12 29.92-3.49 44.99-4.34 16.48-.93 24.2 3.78 38.09 12.3-13.88 11.74-37.17 3.86-51.54 14.98-3.71 2.87-6.46 6.78-9.15 10.63-8.81 12.59-17.74 32.23-30.94 40.45-11.4 7.1-31.7 9.38-44.77 9.21-10.84.48-22.04.46-31.99 4.96s-18.35 15.03-16.74 26.16c1.34 9.27 9.27 16.33 17.88 19.18 30.71 10.16 61.87-9.32 91.58.11 17.97 5.7 8.4 14.62 15.16 29.29 9.18 19.92 29.14 34.02 50.38 35.58 25.29 1.86 53.06-12.22 74.73 1.43 5.22 3.29 9.5 7.94 14.22 11.96 21 17.84 51.94 22.03 76.68 10.39 16.21-7.62 29.15-21.03 44.16-30.94 24.91-16.44 55.81-22.84 84.88-17.57 17.15 3.11 33.64 10.1 51.02 11.3 28.02 1.94 56.75-12.81 71.61-37.55 14.86-24.74 14.77-58.5-.87-82.69-15.64-24.18-46.26-37.06-73.57-30.23-7.39 1.85-14.67 5.02-22.26 4.6-20.22-1.12-30.35-24.82-43-41.23-3.47-4.51-7.44-8.57-11.76-12.18-.04-.16 1.78-.53 10.93-1.12 6.45-.42 12.81 1.47 18.28 4.91 5.22 3.29 9.5 7.94 14.23 11.96 21 17.84 51.93 22.03 76.68 10.39 16.2-7.62 29.15-21.03 44.16-30.94 24.91-16.44 55.81-22.84 84.88-17.57 17.15 3.11 33.64 10.1 51.02 11.3 28.02 1.94 56.75-12.81 71.61-37.55 14.86-24.74 14.77-58.5-.87-82.69"/><path fill="#d7bbf8" d="M1162 409.96c-15.44-23.13-45.22-35.17-71.55-28.24-7.12 1.88-14.13 5.03-21.47 4.72-19.58-.83-29.67-23.56-42.11-39.23-17.48-22.02-46.97-33.07-74.02-27.74-8.66 1.71-17 4.67-25.7 6.19-7.59 1.33-15.69-.79-23.03-3.08-8.3-2.58-16.25-6.1-24.2-9.63-7.32-3.25-14.64-6.51-22.22-9.04-7.38-2.47-15.16-4.23-22.88-3.41-21.51 2.32-27.62 26.4-39.77 41.17-11.95 14.52-29.4 21.84-47.73 25.99-1.31-1.83-2.63-3.63-3.99-5.33-20.97-26.42-58.14-56.96-92.19-43.59-10.99 4.31-22.07 17.26-33.85 16.59-11.42-.65-21.53-7.1-31.68-12.36-22.01-11.41-44.72-7.55-61 11.48-12.19 14.26-15.66 28.94-32.84 38.32-15.34 8.38-33.05 11.65-50.24 13.74-20 2.44-44.25 4.9-62.69 29.73-7.72 10.4-35.14 72.41 35.86 83.09 9.71 1.46 9.19 17.32 13.46 26.26 9.13 19.11 28.62 32.45 49.18 33.68 14.72.89 28.89-3.75 43.46-4.76 15.93-1.11 23.46 3.34 37 11.38-13.28 11.5-35.9 4.19-49.67 15.11-3.55 2.82-6.16 6.62-8.72 10.37-8.36 12.26-16.75 31.32-29.42 39.41-10.94 6.99-30.54 9.45-43.18 9.45-10.48.6-21.32.72-30.88 5.19-9.57 4.47-17.56 14.74-15.86 25.45 1.42 8.93 9.17 15.63 17.53 18.27 29.84 9.41 59.73-9.77 88.59-1.05 17.45 5.27 8.31 14 15.04 28.07 9.13 19.11 28.62 32.45 49.18 33.68 24.49 1.47 51.17-12.46 72.31.43 5.09 3.11 9.29 7.54 13.91 11.36 20.54 16.94 50.52 20.6 74.3 9.06 15.58-7.56 27.93-20.65 42.32-30.41 23.89-16.18 53.7-22.74 81.88-18.02 16.63 2.78 32.67 9.32 49.49 10.26 27.13 1.52 54.74-13.07 68.79-37.13 14.06-24.06 13.55-56.63-1.89-79.76-15.44-23.13-45.22-35.17-71.54-28.23-7.12 1.88-14.13 5.02-21.47 4.71-19.58-.83-29.67-23.56-42.11-39.23-3.42-4.31-7.31-8.18-11.53-11.6-.04-.15 1.71-.54 10.56-1.22 6.24-.48 12.41 1.25 17.75 4.51 5.09 3.11 9.29 7.54 13.91 11.35 20.54 16.95 50.51 20.6 74.3 9.06 15.58-7.56 27.93-20.66 42.32-30.4 23.89-16.18 53.7-22.74 81.88-18.02 16.63 2.79 32.67 9.32 49.49 10.26 27.13 1.52 54.74-13.07 68.79-37.13 14.06-24.06 13.55-56.63-1.89-79.76"/><path fill="#adf088" d="M514.44 189.9c7.86 11.81 23.02 17.95 36.42 14.41 3.63-.96 7.19-2.57 10.93-2.41 9.97.42 15.11 12.02 21.43 20.02 8.9 11.24 23.91 16.88 37.68 14.16 4.4-.87 8.65-2.39 13.08-3.16 3.86-.68 7.98.4 11.72 1.57 4.22 1.32 8.27 3.11 12.32 4.92 3.72 1.66 7.45 3.32 11.31 4.61 3.76 1.26 7.72 2.16 11.65 1.74 10.95-1.18 14.06-13.47 20.25-21.01 6.08-7.41 14.96-11.14 24.29-13.26.67.93 1.34 1.85 2.03 2.72 10.67 13.49 29.59 29.07 46.93 22.25 5.59-2.2 11.23-8.81 17.23-8.47 5.81.33 10.96 3.62 16.12 6.31 11.2 5.82 22.76 3.85 31.05-5.86 6.21-7.28 7.97-14.77 16.72-19.56 7.81-4.28 16.83-5.95 25.57-7.01 10.18-1.24 22.52-2.5 31.91-15.17 3.93-5.31 17.89-36.96-18.25-42.41-4.94-.74-4.68-8.84-6.86-13.4-4.65-9.75-14.57-16.56-25.03-17.19-7.49-.45-14.71 1.91-22.12 2.43-8.11.57-11.94-1.7-18.84-5.81 6.76-5.87 18.28-2.14 25.28-7.71 1.81-1.44 3.14-3.38 4.44-5.29 4.25-6.26 8.53-15.98 14.97-20.12 5.57-3.57 15.55-4.82 21.98-4.82 5.33-.31 10.85-.37 15.72-2.65 4.87-2.28 8.94-7.52 8.07-12.99-.72-4.56-4.67-7.98-8.93-9.33-15.19-4.81-30.41 4.99-45.09.54-8.88-2.69-4.23-7.15-7.65-14.32-4.65-9.75-14.57-16.56-25.03-17.19-12.47-.75-26.05 6.36-36.8-.22-2.59-1.58-4.73-3.85-7.08-5.8C771.4 1.77 756.15-.09 744.04 5.8c-7.93 3.86-14.22 10.54-21.55 15.52-12.16 8.26-27.33 11.61-41.68 9.2-8.47-1.42-16.63-4.76-25.19-5.24-13.81-.77-27.86 6.67-35.02 18.95-7.15 12.28-6.9 28.9.96 40.71 7.86 11.81 23.02 17.95 36.42 14.41 3.63-.96 7.19-2.56 10.93-2.41 9.97.42 15.11 12.02 21.44 20.02 1.74 2.2 3.72 4.17 5.87 5.92.02.08-.87.27-5.37.62-3.18.25-6.32-.64-9.04-2.3-2.59-1.59-4.73-3.85-7.08-5.8-10.46-8.65-25.71-10.51-37.82-4.62-7.93 3.86-14.22 10.54-21.54 15.52-12.16 8.26-27.33 11.6-41.68 9.2-8.47-1.42-16.63-4.76-25.19-5.24-13.81-.77-27.86 6.67-35.02 18.95-7.16 12.28-6.9 28.9.96 40.71"/><path fill="#d7bbf8" d="M748.73 224.9c-10.43-15.66-30.54-23.82-48.32-19.12-4.81 1.27-9.54 3.4-14.5 3.19-13.22-.56-20.04-15.95-28.44-26.56-11.8-14.91-28.51-23.56-46.78-19.94-11.82 2.15-18.84 11.87-24.72 12.9-5.13.9-11.82-2.15-19.35-7.52-15.7-11.22-26.87-15.97-46.82-13.21-23.63 3.27-41 21.02-51.13 41.63-.89-1.24-1.78-2.46-2.69-3.61-14.16-17.89-39.26-38.57-62.26-29.51-7.42 2.92-14.9 11.69-22.86 11.23-7.71-.44-14.54-4.81-21.39-8.37-14.86-7.72-30.2-5.11-41.19 7.77-8.24 9.65-10.57 19.59-22.18 25.95-10.36 5.68-22.32 7.89-33.93 9.31-13.5 1.65-29.88 3.32-42.34 20.13-5.22 7.04-23.73 49.03 24.22 56.26 6.56.99 6.21 11.73 9.09 17.78 6.17 12.94 19.33 21.97 33.21 22.81 9.94.6 19.51-2.54 29.35-3.22 10.76-.75 15.84 2.26 24.99 7.71-8.97 7.79-24.25 2.84-33.54 10.23-2.4 1.91-4.16 4.48-5.89 7.02-5.64 8.3-11.31 21.2-19.87 26.69-7.39 4.73-20.62 6.4-29.16 6.4-7.08.41-14.4.49-20.86 3.51-6.46 3.03-11.86 9.98-10.71 17.24.96 6.04 6.2 10.59 11.84 12.37 20.15 6.37 40.34-6.62 59.83-.71 11.79 3.57 5.61 9.48 10.16 19 6.17 12.94 19.33 21.97 33.21 22.81 16.54 1 34.56-8.43 48.83.29 3.44 2.1 6.27 5.11 9.4 7.69 13.87 11.47 34.11 13.95 50.18 6.13 10.52-5.12 18.86-13.99 28.58-20.59 16.13-10.96 36.26-15.4 55.3-12.2 11.23 1.89 22.06 6.31 33.43 6.95 18.32 1.03 36.97-8.85 46.46-25.14 9.5-16.29 9.15-38.34-1.28-54.01-10.43-15.67-30.54-23.82-48.32-19.12-4.81 1.27-9.54 3.4-14.5 3.19-13.22-.56-20.04-15.95-28.44-26.56a50.355 50.355 0 0 0-7.79-7.86c-.03-.1 1.16-.36 7.13-.83 4.21-.33 8.38.85 11.99 3.05 3.44 2.1 6.27 5.11 9.4 7.69 13.87 11.47 34.11 13.95 50.18 6.13 10.52-5.12 18.86-13.99 28.58-20.59 16.13-10.95 36.26-15.4 55.3-12.2 11.23 1.89 22.06 6.31 33.42 6.95 18.32 1.03 36.97-8.85 46.46-25.14"/><path fill="#ff5200" d="M756.66 447.15c-9.72-14.61-28.48-22.21-45.07-17.83-4.49 1.18-8.9 3.17-13.52 2.98-12.33-.52-18.69-14.88-26.52-24.77-11.01-13.91-29.58-20.89-46.62-17.52-5.45 1.08-10.71 2.95-16.19 3.91-4.78.84-9.88-.5-14.51-1.94-5.22-1.63-10.23-3.85-15.24-6.08-4.61-2.05-9.22-4.11-14-5.71-4.65-1.56-9.55-2.67-14.41-2.15-13.55 1.46-17.4 16.67-25.05 26-7.53 9.17-18.52 13.79-30.06 16.41-.83-1.16-1.66-2.29-2.51-3.37-13.21-16.69-36.62-35.97-58.07-27.53-6.92 2.73-13.9 10.9-21.32 10.48-7.19-.41-13.56-4.48-19.95-7.8-13.86-7.2-28.17-4.77-38.42 7.25-7.68 9-9.86 18.27-20.69 24.2-9.67 5.29-20.82 7.36-31.64 8.68-12.6 1.54-27.87 3.1-39.49 18.77-4.86 6.57-22.14 45.73 22.58 52.48 6.12.92 5.79 10.94 8.48 16.58 5.75 12.07 18.03 20.49 30.98 21.27 9.27.56 18.2-2.37 27.38-3.01 10.03-.7 14.78 2.11 23.31 7.19-8.36 7.26-22.61 2.65-31.28 9.54-2.24 1.78-3.88 4.18-5.49 6.55-5.26 7.74-10.55 19.78-18.53 24.89-6.89 4.42-19.24 5.97-27.2 5.97-6.6.38-13.43.46-19.45 3.28-6.03 2.82-11.06 9.31-9.99 16.07.89 5.64 5.78 9.87 11.04 11.54 18.79 5.95 37.62-6.17 55.8-.67 10.99 3.33 5.24 8.84 9.47 17.72 5.75 12.07 18.02 20.49 30.98 21.27 15.43.93 32.23-7.87 45.54.27 3.21 1.96 5.85 4.76 8.76 7.17 12.94 10.7 31.82 13.01 46.8 5.72 9.81-4.77 17.59-13.04 26.66-19.2 15.05-10.22 33.82-14.36 51.58-11.38 10.48 1.76 20.58 5.89 31.17 6.48 17.09.96 34.48-8.26 43.33-23.45 8.86-15.19 8.53-35.76-1.19-50.37-9.72-14.61-28.48-22.21-45.07-17.83-4.49 1.19-8.9 3.18-13.52 2.98-12.33-.52-18.69-14.88-26.52-24.77-2.15-2.72-4.6-5.17-7.27-7.33-.02-.1 1.08-.34 6.65-.77 3.93-.31 7.82.79 11.18 2.85 3.21 1.96 5.85 4.76 8.76 7.17 12.94 10.7 31.82 13.01 46.8 5.72 9.81-4.77 17.59-13.04 26.66-19.2 15.05-10.22 33.82-14.36 51.58-11.38 10.47 1.76 20.58 5.89 31.17 6.48 17.09.96 34.48-8.26 43.33-23.45 8.85-15.19 8.53-35.76-1.19-50.37"/><path fill="#ffcc1a" d="M1198.39 177.77c-10.09-15.17-29.57-23.06-46.78-18.51-4.66 1.23-9.24 3.29-14.04 3.09-12.8-.54-19.41-15.44-27.54-25.72-11.43-14.44-30.71-21.69-48.4-18.19-5.66 1.12-11.12 3.06-16.81 4.06-4.96.87-10.26-.52-15.06-2.02-5.42-1.69-10.62-4-15.82-6.31-4.79-2.13-9.57-4.27-14.53-5.93-4.83-1.62-9.91-2.78-14.96-2.23-14.07 1.52-18.06 17.31-26.01 26.99-7.81 9.52-19.22 14.32-31.21 17.04-.86-1.2-1.72-2.38-2.61-3.5-13.71-17.32-38.02-37.35-60.29-28.58-7.18 2.83-14.43 11.32-22.14 10.88-7.47-.42-14.08-4.65-20.71-8.1-14.39-7.48-29.24-4.95-39.89 7.53-7.97 9.35-10.24 18.97-21.47 25.13-10.03 5.5-21.62 7.64-32.85 9.01-13.08 1.6-28.94 3.21-40.99 19.49-5.05 6.82-22.98 47.48 23.45 54.48 6.35.96 6.01 11.35 8.81 17.21 5.97 12.53 18.71 21.27 32.16 22.08 9.63.58 18.89-2.46 28.42-3.12 10.42-.72 15.34 2.19 24.2 7.46-8.68 7.54-23.48 2.75-32.48 9.9-2.32 1.85-4.03 4.34-5.7 6.8-5.47 8.04-10.95 20.53-19.24 25.84-7.15 4.59-19.97 6.2-28.24 6.2-6.85.39-13.94.47-20.19 3.4-6.25 2.93-11.48 9.66-10.37 16.69.93 5.85 6 10.25 11.47 11.98 19.51 6.17 39.06-6.41 57.93-.69 11.41 3.46 5.44 9.18 9.83 18.4 5.97 12.53 18.71 21.27 32.16 22.08 16.02.97 33.46-8.17 47.28.28 3.33 2.04 6.07 4.94 9.1 7.45 13.43 11.11 33.03 13.5 48.58 5.94 10.19-4.96 18.26-13.54 27.68-19.93 15.62-10.61 35.11-14.91 53.54-11.81 10.87 1.83 21.36 6.11 32.36 6.73 17.74.99 35.79-8.57 44.98-24.34 9.19-15.77 8.86-37.13-1.24-52.29-10.09-15.17-29.57-23.06-46.78-18.51-4.66 1.23-9.24 3.3-14.04 3.09-12.8-.54-19.41-15.44-27.54-25.72-2.23-2.82-4.78-5.36-7.54-7.61-.03-.1 1.12-.35 6.91-.8 4.08-.32 8.11.82 11.61 2.96 3.33 2.04 6.07 4.94 9.1 7.44 13.43 11.11 33.03 13.51 48.58 5.94 10.19-4.96 18.26-13.54 27.68-19.93 15.62-10.61 35.11-14.91 53.54-11.81 10.87 1.83 21.36 6.11 32.36 6.73 17.74.99 35.79-8.57 44.98-24.34 9.19-15.77 8.86-37.13-1.24-52.29"/><path fill="#005030" d="M855.57 271.28c-8.58-12.89-25.13-19.6-39.77-15.73-3.96 1.05-7.85 2.8-11.94 2.63-10.88-.46-16.49-13.13-23.41-21.86-9.71-12.27-26.1-18.43-41.14-15.46-4.81.95-9.45 2.6-14.28 3.45-4.22.74-8.72-.44-12.8-1.72-4.61-1.44-9.03-3.4-13.45-5.37-4.07-1.81-8.13-3.63-12.35-5.04-4.11-1.38-8.43-2.36-12.72-1.9-11.95 1.29-15.35 14.71-22.11 22.94-6.64 8.09-16.34 12.17-26.53 14.48a78.97 78.97 0 0 0-2.21-2.97c-11.66-14.73-32.32-31.75-51.24-24.29-6.11 2.4-12.27 9.62-18.82 9.25-6.35-.36-11.97-3.95-17.61-6.89-12.23-6.36-24.85-4.21-33.9 6.4-6.78 7.94-8.7 16.13-18.25 21.36-8.53 4.67-18.37 6.49-27.92 7.66-11.11 1.36-24.6 2.73-34.84 16.57-4.29 5.8-19.53 40.35 19.93 46.31 5.4.81 5.11 9.65 7.48 14.63 5.08 10.65 15.9 18.08 27.33 18.77 8.18.49 16.06-2.09 24.16-2.65 8.85-.62 13.04 1.86 20.57 6.34-7.38 6.41-19.96 2.34-27.61 8.42-1.97 1.57-3.43 3.69-4.84 5.78-4.65 6.83-9.31 17.45-16.35 21.97-6.08 3.9-16.97 5.27-24 5.27-5.82.33-11.85.4-17.16 2.89-5.32 2.49-9.76 8.21-8.81 14.19.79 4.98 5.1 8.71 9.75 10.18 16.58 5.25 33.2-5.45 49.24-.59 9.7 2.94 4.62 7.8 8.36 15.64 5.08 10.65 15.9 18.08 27.33 18.77 13.61.82 28.44-6.94 40.19.24 2.83 1.73 5.16 4.2 7.73 6.33 11.42 9.44 28.08 11.48 41.3 5.05 8.66-4.21 15.52-11.51 23.53-16.94 13.28-9.02 29.85-12.67 45.51-10.04 9.24 1.55 18.16 5.19 27.51 5.72 15.08.85 30.42-7.29 38.24-20.69 7.81-13.41 7.53-31.56-1.05-44.45-8.58-12.89-25.13-19.6-39.77-15.73-3.96 1.05-7.85 2.8-11.93 2.63-10.88-.46-16.49-13.13-23.41-21.86-1.9-2.4-4.06-4.56-6.41-6.47-.02-.09.95-.3 5.87-.68 3.47-.27 6.9.7 9.86 2.51 2.83 1.73 5.16 4.2 7.73 6.33 11.42 9.44 28.08 11.48 41.3 5.05 8.66-4.21 15.52-11.51 23.53-16.94 13.28-9.02 29.84-12.67 45.51-10.04 9.24 1.55 18.16 5.19 27.51 5.72 15.08.84 30.42-7.29 38.24-20.69 7.81-13.41 7.53-31.56-1.05-44.45"/><path fill="#a28d24" d="M265.67 442.49c-1.66-20.22 19.23-38.98 39.16-35.14 10.01 1.93 19.47 8.48 29.52 6.74 12.55-2.17 19.24-15.96 22.2-28.35 2.95-12.39 4.82-26.28 14.45-34.62 10.53-9.13 28.46-10.64 40.9-4.35 12.44 6.29 20.67 19.39 31.38 28.32 10.71 8.93 23.54 16.8 37.47 16.33 16.13-.54 30.32-12.13 46.44-12.66 36.65-1.6 50.07 20.05 53.53 44.55 3.46 24.5-20.26 102.41-96.79 84.41-45.02-15.76-41.64 22.51-72.59 14.36-37.7-10.99-18.38-43.51-36.87-57.79-11.24-8.68-27.1-7.69-40.94-4.47-13.83 3.22-27.79 8.27-41.85 6.29-14.06-1.97-28.06-14.42-25.36-28.36"/><path fill="#fc5400" d="M718.17 125.25c-13.25-5.08-28.68.65-38.95 10.44-10.27 9.79-16.44 23-22.4 35.87-5.03 10.88-10.05 21.75-15.08 32.63-3.43 7.42-6.91 15.05-7.43 23.2-.52 8.15 2.59 17.07 9.66 21.17 2.92 1.69 6.71 2.42 9.64.74 2.39-1.37 3.71-3.99 5.54-6.04 2.81-3.15 6.81-4.94 10.68-6.63 18.02-7.89 36.42-15.87 55.99-17.86 23.89-2.42 47.65 4.26 71.54 6.7 6.31.65 13.37.77 18.17-3.37 3.71-3.2 5.21-8.37 5.17-13.27-.13-14.51-11.86-26.38-24.47-33.54-12.61-7.17-26.88-11.42-38.55-20.03-8.51-6.28-15.27-14.63-23.44-21.35-8.16-6.72-18.62-11.93-29.03-10.08"/><path fill="#fc91b5" d="M640.61 244.27c2.22-8.08 6.46-15.6 12.24-21.68 4.48-4.71 9.81-8.52 15.3-11.98 34.02-21.47 75.78-30.4 115.61-24.7 6.9.99 13.87 2.44 19.97 5.82 6.1 3.38 11.29 8.94 12.81 15.75 2.61 11.7-6.69 23.55-18.02 27.48-11.33 3.92-23.85 1.7-35.31-1.82s-22.68-8.31-34.61-9.54a349.857 349.857 0 0 1-39.09 30.14c-4.27 2.84-8.69 5.62-13.62 7.02-4.98 1.41-10.26 1.33-15.39.71-5.44-.66-11.02-2.02-15.22-5.53-4.2-3.51-6.6-9.65-4.41-14.66"/><path fill="#fc5400" d="M718.52 450.51c12.77 1.59 20.07 2.67 28.75-1.84 10.72-5.57 11.29-14.23 11.36-24.82.09-15.16 1.78-30.47 2.19-45.69 1.07-39.18.53-78.96-7.68-117.32a381.19 381.19 0 0 0-7.93-30.72c-1.1-3.62-2.24-12.64-5.49-14.76-1.39-.91-3.21-.63-4.84-.29-4.83 1.02-9.59 2.37-14.24 4.02 3.33-1.18 13.72 36.75 14.47 40.41 3.07 14.89 4.82 30.16 5.75 45.33 1.58 25.93.24 52.04-3.99 77.67-3.81 23.07-9.61 47.59-23.12 67.1M854.8 254.02c8.72-3.34 18.88.43 25.63 6.87s10.82 15.13 14.74 23.61c3.31 7.16 6.62 14.32 9.92 21.47 2.26 4.88 4.55 9.9 4.89 15.27.34 5.37-1.7 11.23-6.36 13.93-1.92 1.11-4.41 1.59-6.34.49-1.57-.9-2.44-2.62-3.64-3.98-1.85-2.07-4.48-3.25-7.03-4.36-11.86-5.19-23.97-10.45-36.85-11.75-15.72-1.6-31.36 2.8-47.08 4.41-4.15.43-8.8.51-11.96-2.22-2.44-2.11-3.43-5.51-3.4-8.73.08-9.55 7.8-17.36 16.1-22.08 8.3-4.71 17.69-7.51 25.37-13.18 5.6-4.13 10.05-9.63 15.43-14.05 5.37-4.42 12.25-7.85 19.1-6.64"/><path fill="#fc91b5" d="M905.84 332.35a33.628 33.628 0 0 0-8.06-14.26c-2.95-3.1-6.45-5.61-10.07-7.89-22.39-14.13-49.87-20-76.09-16.26-4.54.65-9.13 1.61-13.14 3.83-4.02 2.22-7.43 5.88-8.43 10.36-1.72 7.7 4.4 15.5 11.86 18.08 7.46 2.58 15.7 1.12 23.24-1.2 7.54-2.31 14.93-5.47 22.77-6.28 8.1 7.2 16.7 13.84 25.72 19.83 2.81 1.87 5.72 3.7 8.96 4.62 3.28.93 6.75.88 10.13.47 3.58-.43 7.25-1.33 10.02-3.64 2.76-2.31 4.35-6.35 2.9-9.65"/><path fill="#fc5400" d="M854.57 468.07c-5.97 2.4-12.89 4.75-18.6 1.78-7.05-3.66-7.75-12.36-7.79-19.33-.06-9.97-1.17-20.05-1.44-30.07-.7-25.78-.35-51.97 5.06-77.21 1.46-6.81 3.2-13.56 5.22-20.22.72-2.38 1.47-8.32 3.61-9.72.92-.6 2.12-.42 3.18-.19 3.18.67 6.31 1.56 9.37 2.65-2.19-.78-9.03 24.19-9.52 26.59-2.02 9.8-3.18 19.85-3.78 29.83-1.04 17.07-.16 34.25 2.62 51.12 2.51 15.18 6.32 31.32 15.22 44.16"/><path fill="#fbed5a" d="M372.1 285.73c.49-4.34 2.24-9.13 5.28-13.2 2.03-2.72 5.06-4.86 8.59-5.91 4.67-1.39 9.42-2.57 14.43-2.83 1.91-.1 3.27-1.23 4.48-2.44 5.93-5.93 12.21-11.56 19.6-15.82 6.17-3.56 12.39-7.08 19.07-9.94 4.22-1.81 8.57-3.3 12.83-4.97 4.74-1.86 9.9-2.58 15.04-3.17 6.96-.79 13.96-1.13 21.08-1.01 10.44.17 20.7 1.89 30.83 4.38 7.76 1.9 15.5 4.19 22.96 7.37 6.26 2.67 12.49 5.48 18.35 8.83 4.13 2.37 8.16 5.13 12.01 8.06 12 9.15 22.42 20.35 30.2 33.06 3.91 6.4 7.14 13.16 9.58 20.15 1.18 3.4 2.57 7.1 3.02 10.64.38 3.01.11 6.04.97 9.04.45 1.58 1.13 3.23 2.55 4.26 5.58 4.02 12.91 8.83 15.39 15.35 1.78 4.69.71 9.97-2.01 13.97-2.61 3.84-6.92 7.25-11.43 8.81-3.95 1.37-9.03 1.32-12.07 4.43-5.04 5.15-18.09 17.12-23.9 21.47-6.63 4.97-13.96 8.9-21.67 12.18-6.79 2.89-14.01 4.91-21.39 6.44-9.51 1.98-19.28 2.34-29.09 2.02-6.88-.22-13.78-1.29-20.65-2.54-12.69-2.31-24.9-6.31-36.69-11.61-30.61-13.77-61.36-43.6-68.93-76.28-.65-2.83-3.1-4.32-5.35-5.85-4.09-2.8-7.57-6.18-10.73-9.84-3.51-4.06-4.41-8.81-4.22-13.73.14-3.59.8-7.07 1.87-11.3"/><path fill="#adf088" d="M338.95 169.02c9.24 7.1 18.74 13.89 28.34 20.33 6.74 4.53 13.62 9.03 18.93 15.08 13.31 15.18 14.42 37.89 8.29 57.35-59.55-.88-75.85-52.17-55.56-92.77"/><path fill="#fff3e0" d="M1300.5 502.22c-10.24-15.39-30-23.4-47.47-18.78-4.73 1.25-9.37 3.34-14.25 3.14-12.99-.55-19.69-15.67-27.94-26.1-11.6-14.65-31.16-22-49.11-18.45-5.74 1.14-11.28 3.11-17.05 4.12-5.04.88-10.41-.53-15.28-2.05-5.5-1.72-10.78-4.06-16.05-6.41-4.86-2.16-9.71-4.33-14.74-6.02-4.9-1.64-10.06-2.82-15.18-2.27-14.27 1.54-18.33 17.56-26.39 27.39-7.93 9.66-19.5 14.53-31.67 17.29-.87-1.22-1.75-2.42-2.64-3.55-13.91-17.58-38.58-37.89-61.17-29-7.29 2.87-14.64 11.48-22.46 11.04-7.58-.43-14.29-4.72-21.02-8.22-14.6-7.59-29.67-5.03-40.47 7.64-8.09 9.48-10.39 19.25-21.79 25.49-10.18 5.58-21.93 7.75-33.33 9.14-13.27 1.62-29.36 3.26-41.59 19.78-5.12 6.92-23.32 48.17 23.79 55.28 6.44.97 6.1 11.52 8.93 17.47 6.06 12.71 18.99 21.59 32.63 22.41 9.77.59 19.17-2.49 28.84-3.17 10.57-.74 15.56 2.22 24.55 7.57-8.81 7.65-23.82 2.79-32.95 10.05-2.36 1.88-4.09 4.41-5.78 6.9-5.55 8.16-11.12 20.83-19.52 26.22-7.26 4.65-20.26 6.29-28.65 6.29-6.95.4-14.14.48-20.49 3.45-6.35 2.97-11.65 9.8-10.52 16.93.94 5.94 6.09 10.4 11.63 12.16 19.8 6.26 39.63-6.5 58.78-.7 11.58 3.51 5.52 9.32 9.98 18.67 6.06 12.71 18.99 21.59 32.63 22.41 16.25.98 33.95-8.29 47.98.29 3.38 2.07 6.16 5.02 9.23 7.55 13.63 11.27 33.52 13.7 49.3 6.03 10.34-5.03 18.53-13.74 28.08-20.23 15.85-10.76 35.63-15.12 54.33-11.99 11.04 1.85 21.68 6.2 32.84 6.83 18 1.01 36.32-8.7 45.65-24.7 9.33-16 8.99-37.67-1.25-53.06s-30-23.4-47.47-18.78c-4.73 1.25-9.37 3.34-14.25 3.14-12.99-.55-19.69-15.67-27.94-26.1a50.318 50.318 0 0 0-7.65-7.72c-.03-.1 1.14-.36 7.01-.81 4.14-.32 8.23.83 11.78 3 3.38 2.07 6.16 5.02 9.23 7.55 13.63 11.27 33.52 13.71 49.3 6.03 10.34-5.03 18.53-13.74 28.08-20.23 15.85-10.76 35.63-15.13 54.33-11.99 11.03 1.85 21.68 6.2 32.84 6.83 18 1.01 36.32-8.7 45.64-24.7 9.33-16 8.99-37.67-1.25-53.06"/><path fill="#fc030f" d="M888.32 563.05c-2.51.32-4.94 1.05-7.44 1.42-7.81 1.16-16.11-2.42-20.83-8.99-3.36-4.67-5.95-11.33-11.55-11.84-2.1-.19-4.14.62-6.21 1.06-7.63 1.63-16-2.24-20.12-9.09-4.12-6.85-3.85-16.21.49-22.92 4.34-6.71 12.43-10.51 20.17-9.7 4.81.5 9.31 2.6 14.04 3.63 2.8.61 5.67.82 8.52.66-2.1-1.07-4.05-2.45-5.76-4.11-1.51-1.47-2.85-3.14-4.54-4.37-7.02-5.11-16.68-1.02-25.18-2.24-7.13-1.03-13.56-6.25-16.23-13.19-1.25-3.25-1.78-6.92-3.98-9.56-3.24-3.9-8.86-4.22-13.83-4.25-6.77-.03-13.55-.07-20.32-.1-3.06-.02-6.19-.05-9.04-1.21-2.84-1.16-5.36-3.73-5.62-6.89-.31-3.79 2.76-7.15 6.21-8.43 3.45-1.28 7.23-1.01 10.9-.92 7.29.19 15.35-.74 20.33-6.27 1.39-1.55 2.47-3.38 3.91-4.89 4.95-5.19 12.8-5.39 19.84-5.67 9.02-.35 18.79-1.74 25.18-8.36 4.63-4.81 7.41-13.04 14.96-13.23 2.71-.07 5.37.77 7.88 1.85 2.57 1.1 5.03 2.45 7.5 3.8 2.67 1.46 5.35 2.92 8.17 4.06 2.5 1.01 5.26 1.98 7.94 1.74 3.07-.28 6.06-1.07 9.12-1.42 9.57-1.08 19.54 3.63 25.04 11.83 3.91 5.83 6.82 14.07 13.61 14.92 2.55.32 5.08-.58 7.61-1.03.94-.17 1.89-.25 2.85-.28-2.11-16.25-8.72-31.86-19.83-43.43-20.65-21.51-46.88-24.34-68.88-17.82-.48.14-4.04-4.65-5.49-6.26-2.65-2.94-6.83-4.91-10.34-6.52-7.48-3.44-15.72-5.14-23.9-4.82-35.59 1.38-63.51 39.12-68.47 73.29-4.04 27.81 5.96 46.56 11.85 72.18 11.07 48.18 37.59 66.71 77.4 68.16 20.13.73 35.61-8.05 49.63-19.91-1.81-.62-3.75-1.11-5.61-.87"/><path fill="#a28d24" d="M952.61 464.71c.25-5.22.02-10.47-.65-15.67-.95.04-1.9.12-2.85.28-2.53.45-5.06 1.35-7.61 1.03-6.8-.85-9.71-9.09-13.61-14.92-5.5-8.2-15.47-12.91-25.04-11.83-3.06.35-6.05 1.14-9.12 1.42-2.68.24-5.44-.73-7.94-1.74-2.82-1.14-5.5-2.6-8.17-4.06-2.46-1.35-4.92-2.7-7.5-3.8-2.51-1.08-5.17-1.92-7.88-1.85-7.56.19-10.33 8.42-14.96 13.23-6.38 6.63-16.15 8.01-25.18 8.36-7.03.27-14.89.47-19.83 5.67-1.44 1.51-2.52 3.34-3.91 4.89-4.98 5.53-13.04 6.45-20.33 6.27-3.67-.09-7.45-.36-10.9.92-3.45 1.29-6.52 4.64-6.21 8.43.25 3.16 2.78 5.73 5.62 6.89 2.84 1.16 5.98 1.19 9.03 1.21 6.77.04 13.55.07 20.32.1 4.97.03 10.58.35 13.83 4.25 2.2 2.64 2.74 6.31 3.98 9.56 2.67 6.94 9.1 12.16 16.23 13.19 8.49 1.22 18.16-2.87 25.18 2.24 1.69 1.23 3.03 2.9 4.54 4.37 1.71 1.66 3.66 3.04 5.76 4.11-2.85.16-5.72-.05-8.52-.66-4.73-1.03-9.23-3.13-14.04-3.63-7.74-.81-15.84 2.99-20.17 9.71-4.33 6.71-4.61 16.06-.49 22.92 4.12 6.85 12.49 10.72 20.12 9.1 2.06-.44 4.11-1.25 6.21-1.06 5.59.51 8.19 7.17 11.55 11.84 4.72 6.56 13.02 10.14 20.83 8.99 2.5-.37 4.93-1.11 7.44-1.42 1.86-.23 3.8.25 5.61.87 7.09-5.99 13.8-12.76 20.56-19.49 21.11-21.03 36.67-48.9 38.12-79.71"/><path fill="#b28f45" d="M863.14 405.32s.32-37.97.39-44.68c.1-9.65-.05-10.89-.05-10.89l9.15.79-4.14 55.07-5.35-.29Z"/><path fill="#adf088" d="M973.44 350.81c-6.78 9.48-13.22 19.22-19.33 29.03-4.29 6.89-8.55 13.93-14.42 19.45-14.7 13.83-37.36 15.73-57.03 10.28-1.19-59.55 49.49-77.62 90.77-58.76"/><path fill="#fc91b5" d="M524.13 527.77c4.65-6.71 14.35-8.36 18.3-15.54a72.24 72.24 0 0 1-20.66 2.72l-2.58-.57c-3.09-3.01-4.77-9.29-6.14-13.26-1.43-4.17-2.4-8.29-3.7-12.48-2.73-8.75-8.09-16.55-14.54-22.98-7.46-7.44-16.04-13.92-25.33-18.9-8.52-4.57-16.65-8.31-26.66-6.71-15.54 2.48-24.76 14.55-27.12 29.47-1.14 7.23-2.21 14.51.53 21.47 2.71 6.9 7.9 12.74 13.94 16.94 10.09 7.01 23.49 11.22 35.19 14.44 6.79 1.87 22.02 12.13 21.28 11.46 2.66 2.66 4.76 6.27 7.04 9.29 2.75 3.63 5.55 7.21 8.32 10.82 2.97 3.87 3.56 6.2 7.58 8.85-.68-2.95-6.73-20.65-6.51-20.43.09.09 13.12 21.05 13.98 20.97 3.05-.1 8.42.32 10.9-1.7.64-.52 1.64-1.57 1.62-2.43-.03-.86-.91-1.48-1.71-1.64-2.89-.59-4.63-.71-5.61-3.13-1.82-5.87-2.27-12.19-1.21-18.26.51-2.97 1.4-5.93 3.1-8.38M634.63 510.39c-1.51 9.09-33.59 24.11-52.29 12.65-1.08-.66-2.18-1.33-3.24-2.15 0 0-16.36-19.02-21.66-25.45-5.85-7.1-27.22-23.16-29.91-24.17-.53-.91 23.48-7.02 23.3-6.99-3.86.65-28.39-2.71-28.94-5.61-.54-2.87.31-7.17 2.14-9.46 1.06-1.32 3.66-.7 4.36.53.36.45.45 1.09.82 1.54.53.64 3.87.69 4.68.67 3.42-.08 6.84-.5 10.19-1.26-.55-5.41 6.22-10.84 11.49-3.84l-.51-.74c3.39-.67 22.65 15.29 22.74 15.97.07.51.48.89.86 1.22l3.59 3.11c4.21-1.77 36.38-14.89 55.46-9.7 8.17 2.22 12.06 5.84 13.89 9.82.53 1.15.89 2.32 1.12 3.51 1.99 7.59 2.39 18.33 2.4 28.43 0 9.83-16.48 9.66-20.48 11.9"/><path fill="none" stroke="#fc91b5" stroke-width="6.34" d="m469.77 497.37-1.94 64.2m182.5-73.27 3.56 65.69m-18.12-65.69 3.56 65.69m-38.28-60.37 3.56 65.69m-24.42-65.69 3.56 65.69m-98.88-61.87 3.67 67.77m-54.13-79.54 3.56 65.69m-18.56-65.69 3.56 65.69"/><g><path fill="#fc91b5" d="M505.24 505.61h46.53s-7.84 18.25-22.35 20.11c-14.51 1.86-24.18-20.11-24.18-20.11M550.06 452.43l37.36-27.75s4.58 19.32-5.96 29.47c-10.54 10.14-31.4-1.72-31.4-1.72"/><path fill="#fc91b5" d="m531.15 432.22 21.55 28.85s7.68-13.31 2.12-23.17c-5.56-9.86-23.66-5.68-23.66-5.68"/><path fill="none" stroke="#fc91b5" stroke-width="3.17" d="M412.03 426.34s-2.06 7.33 4.57 14.58c2.48 2.71 9.38 2.73 11.74-.19 1.49-1.84 1.64-4.64.35-6.63-2.78-4.31-8.89-2.48-11.5 1.01-2.23 2.98-2.19 6.8.28 9.64 7.76 8.92 17.1-.38 17.1-.38"/><path fill="#004f30" d="M503.69 533.38a1.63 1.63 0 1 0 0-3.26 1.63 1.63 0 0 0 0 3.26M555.09 458.33a1.63 1.63 0 1 0 0-3.26 1.63 1.63 0 0 0 0 3.26"/><path fill="#fc5400" d="M158.14 355.81c4.33-9.92 15.72-30.81 45.78-57.81 0 0 7.4 6.64 11.67 16.36 6.63 15.11 6.55 30.59-.17 45.67-6.72 15.07-24.18 25.92-40.04 21.35 21.66.17 28.23 15.72 38.45 34.61-16.25-10.59-29.4-17.61-40.05-19.8-.44 9.52 3.45 30.99 3.45 30.99-17.22-9.47-24.18-20.72-26.19-33.72-.52-3.37-2.99-3.02-5.83-3.53-3.08-.56-6.15-1.2-9.18-1.98-6.19-1.58-12.26-3.71-17.91-6.73-22.93-12.28-29.93-37.6-28.28-62.09 18.59 14 68.3 36.69 68.3 36.69"/><path fill="#d7bbf8" d="M138.98 233.61c-2.73-9.07-17.3-42.69-40.59-69.28-1.06-1.21-12.01 13.19-12.79 14.45-5.13 8.3-7.47 18.17-6.23 27.89 1.75 13.68 9.83 24.13 21.3 31.14 5.17 3.16 10.78 5.9 16.59 7.67.43.13 7.47 1.97 6.19.13.66.94 5.79 1.85 7.05 2.38 2.49 1.03 4.91 2.24 7.33 3.42 4.74 2.31 9.45 4.52 14.6 5.76 10.99 2.66 22.7 1.51 32.79-3.7 19.94-10.28 27.61-33.37 28.72-54.5-25.43 7.02-74.98 34.64-74.98 34.64"/><path fill="#d7bbf8" d="M121.25 267.66c-4.37 6.32-12.82 13.13-14.12 14.26-4.95 4.28-11.35 7.18-17.89 6.88-16.81-.79-21.62-20.12-12.77-32.23 9.54-13.06 39.99-11.89 54.47-9.51 4.35.71-2.84 10.69-9.69 20.61"/><path fill="#d7bbf8" d="M129.02 266.34c-.55 7.66 1.79 18.26 2.1 19.96 1.18 6.44 4.37 12.7 9.66 16.55 13.61 9.9 29.45-2.18 30.12-17.16.72-16.16-23.77-34.28-36.56-41.49-3.84-2.16-4.47 10.12-5.32 22.14"/><path fill="#ffd400" d="M230.64 634.41a4.56 4.56 0 0 1-.54-1.21c-.83-2.83.98-5.99 4.04-7.06l131.47-46.08c3.06-1.07 6.21.35 7.03 3.18.83 2.83-.98 5.99-4.04 7.06l-131.47 46.08c-2.58.91-5.23.03-6.49-1.96"/><path fill="#ffd400" d="M225.78 604.23c-.59-.94-.86-2.1-.69-3.33.42-3.02 3.31-5.39 6.45-5.28l138.42 4.53c3.14.1 5.35 2.63 4.93 5.66-.42 3.02-3.31 5.39-6.45 5.28l-138.42-4.53c-1.85-.06-3.38-.97-4.24-2.32"/><path fill="#ffd400" d="M266.08 653.14c-1.18-1.87-.96-4.45.73-6.39l69.99-80.42c2.12-2.44 5.75-2.96 8.1-1.17 2.35 1.79 2.55 5.22.43 7.65l-69.99 80.42c-2.12 2.44-5.75 2.96-8.1 1.17-.47-.36-.86-.79-1.16-1.26"/><path fill="#ffd400" d="M286.06 658.07c-.81-1.28-1-2.94-.38-4.57l34.1-89.2c1.12-2.92 4.42-4.65 7.39-3.87 2.96.78 4.46 3.78 3.35 6.7l-34.1 89.2c-1.12 2.92-4.42 4.65-7.39 3.87-1.31-.34-2.33-1.12-2.97-2.13"/><path fill="#ffd400" d="M246.25 647.52c-1.56-2.47-.59-5.89 2.17-7.63l101.86-64.26c2.76-1.74 6.26-1.15 7.82 1.32 1.56 2.47.59 5.89-2.17 7.63l-101.86 64.26c-2.76 1.74-6.26 1.15-7.82-1.32"/><path fill="#ffd400" d="M256.59 569.68c-1.22-1.93-.94-4.6.87-6.55 2.2-2.37 5.83-2.77 8.11-.89l95.96 79.06c2.28 1.88 2.34 5.32.14 7.69-2.2 2.37-5.83 2.77-8.11.89l-95.96-79.06a4.93 4.93 0 0 1-1.01-1.14"/><path fill="#ffd400" d="M242.42 575.01c-1.03-1.63-1.02-3.82.2-5.7 1.74-2.68 5.3-3.71 7.95-2.3l117.64 62.45c2.65 1.41 3.38 4.71 1.64 7.39-1.74 2.68-5.3 3.71-7.95 2.3L244.27 576.7c-.79-.42-1.41-1-1.84-1.69"/><path fill="#ffd400" d="M230.19 588.76c-.81-1.28-1-2.95-.37-4.58 1.12-2.92 4.44-4.64 7.4-3.86l135.38 36.06c2.96.79 4.45 3.79 3.33 6.71-1.13 2.92-4.44 4.64-7.4 3.85l-135.38-36.06c-1.3-.35-2.32-1.12-2.96-2.13"/><path fill="#ffd400" d="M300.94 661.36c-.48-.76-.75-1.66-.74-2.66l.88-93.02c.03-3.01 2.62-5.67 5.79-5.94 3.17-.27 5.71 1.95 5.68 4.96l-.88 93.02c-.03 3.01-2.62 5.67-5.79 5.94-2.13.18-3.97-.76-4.95-2.3"/><path fill="#ffd400" d="M319.39 656.38c-.19-.3-.35-.63-.47-.97l-31.85-91.1c-.97-2.77.69-6 3.71-7.2 3.02-1.2 6.25.07 7.22 2.84l31.85 91.1c.97 2.77-.69 6-3.71 7.2-2.63 1.05-5.43.22-6.75-1.86"/><path fill="#ffd400" d="M275.03 564.7c-1.52-2.41-.64-5.74 2.02-7.52 2.71-1.82 6.24-1.33 7.88 1.08l63.38 92.97c1.68 2.47.78 5.85-1.92 7.66-2.71 1.82-6.24 1.33-7.88-1.08l-63.38-92.97s-.06-.1-.09-.14"/><path fill="#ffd400" d="M224.09 624.03c-.38-.61-.64-1.32-.71-2.1-.3-2.97 2.01-5.84 5.17-6.42l140.78-25.97c3.15-.58 5.95 1.35 6.25 4.32.3 2.97-2.01 5.84-5.17 6.42l-140.78 25.97c-2.33.43-4.46-.51-5.54-2.22"/></g></svg>