<?xml version="1.0" encoding="UTF-8"?>
<svg width="1252" height="775" viewBox="0 0 1252 775" xmlns="http://www.w3.org/2000/svg">
  <g id="Layer1">
    <g id="Group" stroke="none">
      <path id="Path" fill="#bef097" d="M579.65 432.06c-8.02-12.05-23.49-18.32-37.16-14.7-3.7.98-7.34 2.62-11.15 2.46-2.8-.12-5.23-1.11-7.42-2.64-.72-1.39-1.51-2.74-2.38-4.04-2.59-3.89-5.8-7.3-9.43-10.16-.87-1.24-1.75-2.45-2.65-3.59-9.08-11.47-24.39-17.23-38.45-14.45-4.5.89-8.83 2.43-13.35 3.23-3.94.69-8.15-.41-11.96-1.6a64.76 64.76 0 0 1-3.06-1.04c-3.35-4.46-6.43-9.45-9.76-13.67-11.47-14.49-30.82-21.76-48.56-18.25-5.68 1.12-11.15 3.08-16.86 4.07-4.98.87-10.29-.52-15.11-2.02-5.44-1.7-10.66-4.01-15.87-6.34-4.8-2.14-9.6-4.28-14.58-5.95-4.85-1.62-9.95-2.79-15.01-2.24-14.11 1.52-42.21 5.83-57.41 44.18-.86-1.21-1.73-2.39-2.62-3.51-13.76-17.38-38.14-37.47-60.49-28.67-7.21 2.84-14.48 11.35-22.21 10.91-7.49-.43-14.13-4.67-20.78-8.13-14.44-7.5-29.34-4.97-40.02 7.55-8 9.38-10.27 19.03-21.54 25.21-10.07 5.51-21.69 7.66-32.96 9.04-13.12 1.6-29.03 3.22-41.13 19.55-5.07 6.84-23.06 47.63 23.52 54.66 6.37.96 6.03 11.39 8.84 17.27 5.99 12.57 18.77 21.34 32.26 22.16 9.66.58 18.96-2.46 28.51-3.13 10.45-.73 15.39 2.2 24.28 7.49-8.71 7.56-23.56 2.76-32.59 9.94-2.33 1.85-4.04 4.36-5.72 6.82-5.48 8.06-10.99 20.6-19.3 25.93-7.18 4.6-20.04 6.22-28.33 6.22-6.88.39-13.98.47-20.26 3.41-6.27 2.94-11.52 9.69-10.41 16.74.93 5.87 6.02 10.28 11.5 12.02 19.58 6.19 39.19-6.43 58.12-.69 11.45 3.47 5.46 9.21 9.87 18.46 5.99 12.57 18.78 21.34 32.27 22.16 16.07.97 33.57-8.2 47.44.28 3.34 2.04 6.09 4.96 9.13 7.47 13.48 11.15 33.14 13.55 48.75 5.96 10.22-4.97 18.32-13.59 27.77-20 15.67-10.64 35.23-14.96 53.72-11.85 2.68.45 5.34 1.05 7.98 1.71a37.18 37.18 0 0 0 11.53 2.95c4.28 1.02 8.58 1.85 12.96 2.1 17.8 1 35.91-8.6 45.13-24.42 1.03-1.77 1.93-3.61 2.72-5.5 7.36-1.67 15.01-1.95 22.45-.7 8.64 1.45 16.97 4.85 25.71 5.34 14.09.79 28.43-6.81 35.73-19.34 7.3-12.53 7.04-29.49-.98-41.54s-23.49-18.32-37.16-14.7c-3.7.98-7.34 2.62-11.15 2.46-10.17-.43-15.41-12.27-21.87-20.43a38.887 38.887 0 0 0-5.99-6.04c-.02-.08.89-.28 5.49-.64 3.24-.25 6.44.65 9.22 2.35 2.65 1.62 4.82 3.93 7.23 5.91 10.67 8.82 26.24 10.73 38.59 4.72 8.09-3.94 14.51-10.76 21.98-15.83 12.41-8.43 27.89-11.84 42.53-9.38 8.64 1.45 16.97 4.85 25.71 5.34 14.09.79 28.43-6.81 35.73-19.34 7.29-12.54 7.03-29.5-.99-41.54Z"/>
      <path id="path1" fill="#ffcc1a" d="M645.65 188.23c47.91 0 86.75-38.84 86.75-86.75s-38.84-86.75-86.75-86.75-86.75 38.84-86.75 86.75c0 47.92 38.84 86.75 86.75 86.75"/>
      <path id="path2" fill="#851f4a" d="M1008.16 380.45c-15.64-24.18-46.26-37.06-73.57-30.23-7.39 1.85-14.67 5.02-22.26 4.6-20.22-1.12-30.35-24.82-43-41.22-17.77-23.06-48.1-34.91-76.13-29.75-8.97 1.65-17.64 4.61-26.65 6.07-7.86 1.27-16.2-1.04-23.76-3.5-8.54-2.78-16.71-6.54-24.88-10.31-7.52-3.47-15.04-6.94-22.84-9.67-7.6-2.66-15.61-4.6-23.6-3.84-22.27 2.11-28.91 26.99-41.67 42.13-12.55 14.88-30.68 22.24-49.69 26.29-1.33-1.92-2.67-3.8-4.05-5.58-21.32-27.67-59.32-59.82-94.71-46.42-11.42 4.32-23.04 17.59-35.22 16.74-11.79-.82-22.16-7.65-32.57-13.23-22.59-12.12-46.12-8.43-63.21 11.07-12.8 14.61-16.58 29.78-34.46 39.27-15.97 8.48-34.32 11.63-52.11 13.56-20.7 2.25-45.81 4.48-65.2 29.96-8.12 10.67-37.31 74.57 35.94 86.6 10.01 1.64 9.27 18.07 13.56 27.39 9.18 19.92 29.14 34.02 50.38 35.58 15.21 1.12 29.92-3.49 44.99-4.34 16.48-.93 24.2 3.78 38.09 12.3-13.88 11.74-37.17 3.86-51.54 14.98-3.71 2.87-6.46 6.78-9.15 10.63-8.81 12.59-17.74 32.23-30.94 40.45-11.4 7.1-31.7 9.38-44.77 9.21-10.84.48-22.04.46-31.99 4.96s-18.35 15.03-16.74 26.16c1.34 9.27 9.27 16.33 17.88 19.18 30.71 10.16 61.87-9.32 91.58.11 17.97 5.7 8.4 14.62 15.16 29.29 9.18 19.92 29.14 34.02 50.38 35.58 25.29 1.86 53.06-12.22 74.73 1.43 5.22 3.29 9.5 7.94 14.22 11.96 21 17.84 51.94 22.03 76.68 10.39 16.21-7.62 29.15-21.03 44.16-30.94 24.9-16.47 55.8-22.86 84.87-17.59 17.15 3.11 33.64 10.1 51.02 11.3 28.02 1.94 56.75-12.81 71.61-37.55 14.86-24.74 14.77-58.5-.87-82.69-15.64-24.18-46.26-37.06-73.57-30.23-7.39 1.85-14.67 5.02-22.26 4.6-20.22-1.12-30.35-24.82-43-41.23-3.47-4.51-7.44-8.57-11.76-12.18-.04-.16 1.78-.53 10.93-1.12 6.45-.42 12.81 1.47 18.28 4.91 5.22 3.29 9.5 7.94 14.23 11.96 21 17.84 51.93 22.03 76.68 10.39 16.2-7.62 29.15-21.03 44.16-30.94 24.91-16.44 55.81-22.84 84.88-17.57 17.15 3.11 33.64 10.1 51.02 11.3 28.02 1.94 56.75-12.81 71.61-37.55 14.86-24.73 14.77-58.49-.87-82.67"/>
      <path id="path3" fill="#d7bbf8" d="M1239.59 407.8c-15.44-23.13-45.22-35.17-71.55-28.24-7.12 1.88-14.13 5.03-21.47 4.72-19.58-.83-29.67-23.56-42.11-39.23-17.48-22.02-46.97-33.07-74.02-27.74-8.66 1.71-17 4.67-25.7 6.19-7.59 1.33-15.69-.79-23.03-3.08-8.3-2.58-16.25-6.1-24.2-9.63-7.32-3.25-14.64-6.51-22.22-9.04-7.38-2.47-15.16-4.23-22.88-3.41-21.51 2.32-27.62 26.4-39.78 41.17-11.95 14.52-29.4 21.84-47.73 25.99-1.31-1.83-2.63-3.63-3.99-5.33-20.97-26.42-58.14-56.96-92.19-43.59-10.99 4.31-22.07 17.26-33.85 16.59-11.42-.65-21.53-7.1-31.68-12.36-22.01-11.41-44.72-7.55-61 11.48-12.19 14.26-15.66 28.94-32.84 38.32-15.34 8.38-33.05 11.65-50.24 13.74-20 2.44-44.25 4.9-62.69 29.73-7.72 10.4-35.14 72.41 35.86 83.09 9.71 1.46 9.19 17.32 13.46 26.26 9.13 19.11 28.62 32.45 49.18 33.68 14.72.89 28.89-3.75 43.46-4.76 15.93-1.11 23.46 3.34 37 11.38-13.28 11.5-35.9 4.19-49.67 15.11-3.55 2.82-6.16 6.62-8.72 10.37-8.36 12.26-16.75 31.32-29.42 39.41-10.94 6.99-30.54 9.45-43.18 9.45-10.48.6-21.32.72-30.88 5.19-9.57 4.47-17.56 14.74-15.86 25.45 1.42 8.93 9.17 15.63 17.53 18.27 29.84 9.41 59.73-9.77 88.59-1.05 17.45 5.27 8.31 14 15.04 28.07 9.13 19.11 28.62 32.45 49.18 33.68 24.49 1.47 51.17-12.46 72.31.43 5.09 3.11 9.29 7.54 13.91 11.36 20.54 16.94 50.52 20.6 74.3 9.06 15.58-7.56 27.93-20.65 42.32-30.41 23.89-16.18 53.7-22.74 81.88-18.02 16.63 2.78 32.67 9.32 49.49 10.26 27.13 1.52 54.74-13.07 68.79-37.13 14.06-24.06 13.55-56.63-1.89-79.76-15.44-23.13-45.22-35.17-71.54-28.23-7.12 1.88-14.13 5.02-21.47 4.71-19.58-.83-29.67-23.56-42.11-39.23-3.42-4.31 26.06-.78 30.69 3.04 20.54 16.95 50.51 20.6 74.3 9.06 15.58-7.56 27.93-20.66 42.32-30.4 23.89-16.18 53.7-22.74 81.88-18.02 16.63 2.79 32.67 9.32 49.49 10.26 27.13 1.52 54.74-13.07 68.79-37.13 14.09-24.02 13.58-56.59-1.86-79.73"/>
      <path id="path4" fill="#bef097" d="M592.03 187.74c7.86 11.81 23.02 17.95 36.42 14.41 3.63-.96 7.19-2.57 10.93-2.41 9.97.42 15.11 12.02 21.43 20.02 8.9 11.24 23.91 16.88 37.68 14.16 4.41-.87 8.65-2.39 13.08-3.16 3.86-.68 7.98.4 11.72 1.57 4.22 1.32 8.27 3.11 12.32 4.92 3.72 1.66 7.45 3.32 11.31 4.61 3.76 1.26 7.72 2.16 11.65 1.74 10.95-1.18 14.06-13.47 20.25-21.01 6.08-7.41 14.96-11.14 24.29-13.26.67.93 1.34 1.85 2.03 2.72 10.67 13.49 29.59 29.07 46.93 22.25 5.59-2.2 11.23-8.81 17.23-8.47 5.81.33 10.96 3.62 16.12 6.31 11.2 5.82 22.76 3.85 31.05-5.86 6.21-7.28 7.97-14.77 16.72-19.56 7.81-4.28 16.83-5.95 25.57-7.01 10.18-1.24 22.52-2.5 31.91-15.17 3.93-5.31 17.89-36.96-18.25-42.41-4.94-.74-4.68-8.84-6.86-13.4-4.65-9.75-14.57-16.56-25.03-17.19-7.49-.45-14.71 1.91-22.12 2.43-8.11.57-11.94-1.7-18.84-5.81 6.76-5.87 18.28-2.14 25.28-7.71 1.81-1.44 3.14-3.38 4.44-5.29 4.25-6.26 8.53-15.98 14.97-20.12 5.57-3.57 15.55-4.82 21.98-4.82 5.33-.31 10.85-.37 15.72-2.65 4.87-2.28 8.94-7.52 8.07-12.99-.72-4.56-4.67-7.98-8.93-9.33-15.19-4.81-30.41 4.99-45.09.54-8.88-2.69-4.23-7.15-7.65-14.32-4.65-9.75-14.57-16.56-25.03-17.19-12.47-.75-26.05 6.36-36.8-.22-2.59-1.58-4.73-3.85-7.08-5.8-10.46-8.65-25.71-10.51-37.82-4.62-7.93 3.86-14.22 10.54-21.55 15.52-12.16 8.26-27.33 11.61-41.68 9.2-8.47-1.42-16.63-4.76-25.19-5.24-13.81-.77-27.86 6.67-35.02 18.95-7.15 12.28-6.9 28.9.96 40.71 7.86 11.81 23.02 17.95 36.42 14.41 3.63-.96 7.19-2.56 10.93-2.41 9.97.42 15.11 12.02 21.44 20.02 1.74 2.2 3.72 4.17 5.87 5.92.02.08-.87.27-5.37.62-3.18.25-6.32-.64-9.04-2.3-2.59-1.59-4.73-3.85-7.08-5.8-10.46-8.65-25.71-10.51-37.82-4.62-7.93 3.86-14.22 10.54-21.54 15.52-12.16 8.26-27.33 11.6-41.68 9.2-8.47-1.42-16.63-4.76-25.19-5.24-13.81-.77-27.86 6.67-35.02 18.95-7.16 12.26-6.9 28.89.96 40.69"/>
      <path id="path5" fill="#d7bbf8" d="M826.31 222.74c-10.43-15.66-30.54-23.82-48.32-19.12-4.81 1.27-9.54 3.4-14.5 3.19-13.22-.56-20.04-15.95-28.44-26.56-11.8-14.91-28.51-23.56-46.78-19.94-11.82 2.15-18.84 11.87-24.72 12.9-5.13.9-11.82-2.15-19.35-7.52-15.7-11.22-26.87-15.97-46.82-13.21-23.63 3.27-41 21.02-51.13 41.63-.89-1.24-1.78-2.46-2.69-3.61-14.16-17.89-39.26-38.57-62.26-29.51-7.42 2.92-14.9 11.69-22.86 11.23-7.71-.44-14.54-4.81-21.39-8.37-14.86-7.72-30.2-5.11-41.19 7.77-8.24 9.65-10.57 19.59-22.18 25.95-10.36 5.68-22.32 7.89-33.93 9.31-13.5 1.65-29.88 3.32-42.34 20.13-5.22 7.04-23.73 49.03 24.22 56.26 6.56.99 6.21 11.73 9.09 17.78 6.17 12.94 19.33 21.97 33.21 22.81 9.94.6 19.51-2.54 29.35-3.22 10.76-.75 15.84 2.26 24.99 7.71-8.97 7.79-24.25 2.84-33.54 10.23-2.4 1.91-4.16 4.48-5.89 7.02-5.64 8.3-11.31 21.2-19.87 26.69-7.39 4.73-20.62 6.4-29.16 6.4-7.08.41-14.4.49-20.86 3.51-6.46 3.03-11.86 9.98-10.71 17.24.96 6.04 6.2 10.59 11.84 12.37 20.15 6.37 40.34-6.62 59.83-.71 11.79 3.57 5.61 9.48 10.16 19 6.17 12.94 19.33 21.97 33.21 22.81 16.54 1 34.56-8.43 48.83.29 3.44 2.1 6.27 5.11 9.4 7.69 13.87 11.47 34.11 13.95 50.18 6.13 10.52-5.12 18.86-13.99 28.58-20.59 16.13-10.96 36.26-15.4 55.3-12.2 11.23 1.89 22.06 6.31 33.43 6.95 18.32 1.03 36.97-8.85 46.46-25.14 9.49-16.29 9.15-38.34-1.28-54.01-10.43-15.67-30.54-23.82-48.32-19.12-4.81 1.27-9.54 3.4-14.5 3.19-13.22-.56-20.04-15.95-28.44-26.56a50.363 50.363 0 0 0-7.79-7.86c-.03-.1 1.16-.36 7.13-.83 4.21-.33 8.38.85 11.99 3.05 3.44 2.1 6.27 5.11 9.4 7.69 13.87 11.47 34.11 13.95 50.18 6.13 10.52-5.12 18.86-13.99 28.58-20.59 16.13-10.95 36.26-15.4 55.3-12.2 11.23 1.89 22.06 6.31 33.42 6.95 18.32 1.03 36.97-8.85 46.46-25.14"/>
      <path id="path6" fill="#ff5200" d="M1086.18 432.18c-9.72-14.61-28.48-22.21-45.07-17.83-4.49 1.18-8.9 3.17-13.52 2.98-12.33-.52-18.69-14.88-26.52-24.77-11.01-13.91-29.58-20.89-46.62-17.52-5.45 1.08-10.71 2.95-16.19 3.91-4.78.84-9.88-.5-14.51-1.94-5.22-1.63-10.23-3.85-15.24-6.08-4.61-2.05-9.22-4.11-14-5.71-4.65-1.56-9.55-2.67-14.41-2.15-13.55 1.46-17.4 16.67-25.05 26-7.53 9.17-18.52 13.79-30.06 16.41-.83-1.16-1.66-2.29-2.51-3.37-13.21-16.69-36.62-35.97-58.07-27.53-6.92 2.73-13.9 10.9-21.32 10.48-7.19-.41-13.56-4.48-19.95-7.8-13.86-7.2-28.17-4.77-38.42 7.25-7.68 9-9.86 18.27-20.69 24.2-9.67 5.29-20.82 7.36-31.64 8.68-12.6 1.54-27.87 3.1-39.49 18.77-4.86 6.57-22.14 45.73 22.58 52.48 6.12.92 5.79 10.94 8.48 16.58 5.75 12.07 18.03 20.49 30.98 21.27 9.27.56 18.2-2.37 27.38-3.01 10.03-.7 14.78 2.11 23.31 7.19-8.36 7.26-22.61 2.65-31.28 9.54-2.24 1.78-3.88 4.18-5.49 6.55-5.26 7.74-10.55 19.78-18.53 24.89-6.89 4.42-19.24 5.97-27.2 5.97-6.6.38-13.43.46-19.45 3.28-6.03 2.82-11.06 9.31-9.99 16.07.89 5.64 5.78 9.87 11.04 11.54 18.79 5.95 37.62-6.17 55.8-.67 10.99 3.33 5.24 8.84 9.47 17.72 5.75 12.07 18.02 20.49 30.98 21.27 15.43.93 32.23-7.87 45.54.27 3.21 1.96 5.85 4.76 8.76 7.17 12.94 10.7 31.82 13.01 46.8 5.72 9.81-4.77 17.59-13.04 26.66-19.2 15.05-10.22 33.82-14.36 51.58-11.38 10.48 1.76 20.58 5.89 31.17 6.48 17.09.96 34.48-8.26 43.33-23.45 8.86-15.19 8.53-35.76-1.19-50.37-9.72-14.61-28.48-22.21-45.07-17.83-4.49 1.19-8.9 3.18-13.52 2.98-12.33-.52-18.69-14.88-26.52-24.77-2.15-2.72-4.6-5.17-7.27-7.33-.02-.09 1.08-.34 6.65-.77 3.93-.31 7.82.79 11.18 2.85 3.21 1.96 5.85 4.76 8.76 7.17 12.94 10.7 31.82 13.01 46.8 5.72 9.81-4.77 17.59-13.04 26.66-19.2 15.05-10.22 33.82-14.36 51.58-11.38 10.47 1.76 20.58 5.89 31.17 6.48 17.09.96 34.48-8.26 43.33-23.45 8.84-15.18 8.52-35.75-1.2-50.36"/>
      <path id="path7" fill="#ffcc1a" d="M1197.4 207.23c-10.38-15.59-30.4-23.7-48.09-19.03-4.79 1.27-9.5 3.39-14.43 3.18-13.16-.56-19.95-15.88-28.31-26.44-11.75-14.84-31.57-22.29-49.75-18.7-5.82 1.15-11.43 3.15-17.28 4.17-5.1.89-10.54-.54-15.48-2.08-10.77-3.36-20.4-9.49-31.15-12.73-10.67-3.21-22.25-3.44-32.99-.44-21.37 5.98-35.49 22.72-41.26 43.55-.41 1.46-1.77-2.45-2.68-3.6-14.1-17.81-39.08-38.39-61.97-29.38-7.38 2.91-14.83 11.63-22.76 11.18-7.67-.44-14.47-4.78-21.29-8.33-14.8-7.69-30.06-5.09-41 7.74-8.2 9.61-10.52 19.5-22.07 25.83-10.31 5.65-22.22 7.85-33.77 9.26-13.44 1.64-29.74 3.3-42.14 20.03-5.19 7.01-23.62 48.8 24.1 56 6.53.98 6.18 11.67 9.05 17.7 6.14 12.88 19.24 21.87 33.06 22.7 9.9.6 19.42-2.52 29.21-3.21 10.71-.75 15.77 2.25 24.87 7.67-8.93 7.75-24.13 2.82-33.39 10.18-2.39 1.9-4.14 4.47-5.86 6.99-5.62 8.26-11.26 21.11-19.78 26.56-7.35 4.71-20.53 6.37-29.03 6.37-7.04.4-14.33.49-20.76 3.5-6.43 3.01-11.8 9.93-10.66 17.16.95 6.02 6.17 10.54 11.79 12.32 20.06 6.34 40.15 5.31 59.55 11.18 11.73 3.55 5.59 9.44 10.11 18.92 6.14 12.88 19.24 9.98 33.06 10.81 16.46.99 34.4-8.4 48.6.29 3.42 2.1 6.24 5.08 9.35 7.65 13.81 11.42 33.96 13.88 49.94 6.1 10.47-5.09 18.77-13.92 28.45-20.49 16.06-10.9 36.09-15.32 55.04-12.14 11.18 1.88 21.96 6.28 33.27 6.92 18.23 1.02 36.79-8.81 46.24-25.02 9.45-16.21 9.11-38.16-1.27-53.76-10.38-15.59-30.39-23.7-48.09-19.03-4.79 1.27-9.5 3.39-14.43 3.18-13.16-.56-19.95-15.88-28.31-26.44-2.3-2.9-4.91-5.51-7.75-7.82-.03-.1 1.15-.36 7.1-.82 4.19-.32 8.34.85 11.93 3.04 3.42 2.09 6.24 5.08 9.35 7.65 13.81 11.42 33.95 13.88 49.94 6.11 10.47-5.09 18.77-13.92 28.45-20.49 16.06-10.9 36.09-15.32 55.04-12.14 11.18 1.88 21.96 6.28 33.27 6.92 18.23 1.02 36.79-8.81 46.24-25.02 9.46-16.21 9.12-38.16-1.26-53.75"/>
      <path id="path8" fill="#005030" d="M949.95 273.37c-8.58-12.89-25.13-19.6-39.77-15.73-3.96 1.05-7.85 2.8-11.94 2.63-10.88-.46-16.49-13.13-23.41-21.86-9.71-12.27-26.1-18.43-41.14-15.46-4.81.95-9.45 2.6-14.28 3.45-4.22.74-8.72-.44-12.8-1.72-4.61-1.44-9.03-3.4-13.45-5.37-4.07-1.81-8.13-3.63-12.35-5.04-13.19-4.43-26.87.75-37.29 9.17-4.65 3.75-8.75 8.12-12.55 12.72-1.91 2.31-9.58 11.42-11.51 13.64 0 0-1.46-2.02-2.21-2.97-11.66-14.73-32.32-31.75-51.24-24.29-6.11 2.4-12.27 9.62-18.82 9.25-6.35-.36-11.97-3.95-17.61-6.89-12.23-6.36-24.85-4.21-33.9 6.4-6.78 7.94-8.7 16.13-18.25 21.36-8.53 4.67-18.37 6.49-27.92 7.66-11.11 1.36-24.6 2.73-34.84 16.57-4.29 5.8-19.53 40.35 19.93 46.31 5.4.81 5.11 9.65 7.48 14.63 5.08 10.65 15.9 18.08 27.33 18.77 8.18.49 16.06-2.09 24.16-2.65 8.85-.62 13.04 1.86 20.57 6.34-7.38 6.41-19.96 2.34-27.61 8.42-1.97 1.57-3.43 3.69-4.84 5.78-4.65 6.83-9.31 17.45-16.35 21.97-6.08 3.9-16.97 5.27-24 5.27-5.82.33-11.85.4-17.16 2.89-5.32 2.49-9.76 8.21-8.81 14.19.79 4.98 5.1 8.71 9.75 10.18 16.58 5.25 33.2-5.45 49.24-.59 9.7 2.94 4.62 7.8 8.36 15.64 5.08 10.65 15.9 18.08 27.33 18.77 13.61.82 28.44-6.94 40.19.24 2.83 1.73 5.16 4.2 7.73 6.33 11.42 9.44 28.08 11.48 41.3 5.05 8.66-4.21 15.52-11.51 23.53-16.94 13.28-9.02 29.85-12.67 45.51-10.04 9.24 1.55 18.16 5.19 27.51 5.72 15.08.85 30.42-7.29 38.24-20.69 7.81-13.41 7.53-31.56-1.05-44.45-8.58-12.89-25.13-19.6-39.77-15.73-3.96 1.05-7.85 2.8-11.93 2.63-10.88-.46-16.49-13.13-23.41-21.86a41.73 41.73 0 0 0-6.41-6.47c-.02-.09.95-.3 5.87-.68 3.47-.27 6.9.7 9.86 2.51 2.83 1.73 5.16 4.2 7.73 6.33 11.42 9.44 28.08 11.48 41.3 5.05 8.66-4.21 15.52-11.51 23.53-16.94 13.28-9.02 29.84-12.67 45.51-10.04 9.24 1.55 18.16 5.19 27.51 5.72 15.08.84 30.42-7.29 38.24-20.69 7.77-13.45 7.49-31.6-1.09-44.49"/>
      <path id="path9" fill="#a28d24" d="M340.99 456.13c-1.7-20.66 19.64-39.81 40-35.9 10.23 1.97 19.89 8.66 30.15 6.89 12.82-2.22 19.66-16.3 22.68-28.96 3.02-12.66 4.93-26.84 14.76-35.36 10.76-9.33 29.07-10.87 41.78-4.44 12.71 6.42 21.12 19.81 32.05 28.93 10.94 9.12 24.04 17.16 38.27 16.68 16.47-.55 30.97-12.39 47.44-12.94 37.43-1.63 51.14 20.48 54.68 45.5 3.53 25.03-20.69 104.62-98.87 86.22-45.98-16.09-42.54 22.99-74.15 14.67-38.51-11.22-18.77-44.44-37.66-59.04-11.48-8.87-27.69-7.85-41.82-4.57-14.13 3.28-28.38 8.44-42.75 6.43-14.37-2.02-28.66-14.73-25.91-28.97"/>
      <path id="path10" fill="#fbed5a" d="M449.69 283.57c.49-4.34 2.24-9.13 5.28-13.2 2.03-2.72 5.06-4.86 8.59-5.91 4.67-1.39 9.42-2.57 14.43-2.83 1.91-.1 3.27-1.23 4.48-2.44 5.93-5.93 12.21-11.56 19.6-15.82 6.17-3.56 12.39-7.08 19.07-9.94 4.22-1.81 8.57-3.3 12.83-4.97 4.74-1.86 9.9-2.58 15.04-3.17 6.96-.79 13.96-1.13 21.08-1.01 10.44.17 20.7 1.89 30.83 4.38 7.76 1.9 15.5 4.19 22.96 7.37 6.26 2.67 12.49 5.48 18.35 8.83 4.13 2.37 8.16 5.13 12.01 8.06 12 9.15 22.42 20.35 30.2 33.06 3.91 6.4 7.14 13.16 9.58 20.15 1.18 3.4 2.57 7.1 3.02 10.64.38 3.01.11 6.04.97 9.04.45 1.58 1.13 3.23 2.55 4.26 5.58 4.02 12.91 8.83 15.39 15.35 1.78 4.69.71 9.97-2.01 13.97-2.61 3.84-6.92 7.25-11.43 8.81-3.95 1.37-9.03 1.32-12.07 4.43-5.04 5.15-18.09 17.12-23.9 21.47-6.63 4.97-13.96 8.9-21.67 12.18-6.79 2.89-14.01 4.91-21.39 6.44-9.51 1.98-19.28 2.34-29.09 2.02-6.88-.22-13.78-1.29-20.65-2.54-12.69-2.31-24.9-6.31-36.69-11.61-30.61-13.77-61.36-43.6-68.93-76.28-.65-2.83-3.1-4.32-5.35-5.85-4.09-2.8-7.57-6.18-10.73-9.84-3.51-4.06-4.41-8.81-4.22-13.73.14-3.61.8-7.1 1.87-11.32"/>
      <path id="path11" fill="#bef097" d="M416.54 166.86c9.24 7.1 18.74 13.89 28.34 20.33 6.74 4.53 13.62 9.03 18.93 15.08 13.31 15.18 14.42 37.89 8.29 57.35-59.56-.87-75.85-52.16-55.56-92.76"/>
      <path id="path12" fill="#fc5400" d="M217.36 268.34c4.33-9.92 15.72-30.81 45.78-57.81 0 0 7.4 6.64 11.67 16.36 6.63 15.11 6.55 30.59-.17 45.67-6.72 15.07-24.18 25.92-40.04 21.35 21.66.17 28.23 15.72 38.45 34.61-16.25-10.59-29.4-17.61-40.05-19.8-.44 9.52 3.45 30.99 3.45 30.99-17.22-9.47-24.18-20.72-26.19-33.72-.52-3.37-2.99-3.02-5.83-3.53-3.08-.56-6.15-1.2-9.18-1.98-6.19-1.58-12.26-3.71-17.91-6.73-22.93-12.28-29.93-37.6-28.28-62.09 18.6 13.99 68.3 36.68 68.3 36.68"/>
      <path id="path13" fill="#d7bbf8" d="M306.94 117.04c-2.73-9.07-17.3-42.69-40.59-69.28-1.06-1.21-12.01 13.19-12.79 14.45-5.13 8.3-7.47 18.17-6.23 27.89 1.75 13.68 9.83 24.13 21.3 31.14 5.17 3.16 10.78 5.9 16.59 7.67.09.03.47.13.99.25-15.22-.8-34.54.91-41.79 10.83-8.85 12.11-4.05 31.44 12.77 32.23 6.54.31 12.94-2.59 17.89-6.88 1.3-1.13 9.76-7.94 14.12-14.26 3.25-4.71 6.58-9.43 8.71-13.17-.38 3.59-.65 7.73-.94 11.85-.55 7.66 1.79 18.26 2.1 19.96 1.18 6.44 4.37 12.7 9.66 16.55 13.61 9.9 29.45-2.18 30.12-17.16.43-9.69-8.2-20.08-17.94-28.41 10.84 2.5 22.34 1.31 32.27-3.81 19.94-10.28 27.61-33.37 28.72-54.5-25.41 7.02-74.96 34.65-74.96 34.65Zm-15.53 11.99c.14.2.48.39.94.59-.27-.03-.54-.05-.82-.08.06-.12.04-.29-.12-.51Z"/>
      <path id="path14" fill="#ffd400" d="m321.87 496.43-22.13-5.9 17.97.59c3.14.1 6.03-2.26 6.45-5.28.39-2.78-1.45-5.14-4.19-5.58 3.01-.7 5.17-3.48 4.88-6.36-.27-2.68-2.59-4.51-5.36-4.41 2.03-1.44 3.08-3.94 2.41-6.21-.83-2.83-3.97-4.25-7.03-3.18l-7.81 2.74c1.24-1.78 1.44-4.06.31-5.84-1.56-2.47-5.06-3.06-7.82-1.32l-16.43 10.36 11.47-13.18c2.12-2.44 1.93-5.86-.43-7.65-2.35-1.79-5.98-1.27-8.1 1.17l-10.66 12.26 4.38-11.46c1.12-2.92-.38-5.92-3.35-6.7-2.97-.78-6.27.95-7.39 3.87l-7.39 19.34.18-18.95c.03-3.01-2.52-5.23-5.68-4.96-3.17.27-5.76 2.93-5.79 5.94l-.03 3.05-3.07-8.79c-.97-2.77-4.2-4.04-7.22-2.84-1.94.77-3.31 2.38-3.79 4.17l-2.05-3.01c-1.65-2.41-5.18-2.9-7.88-1.08-2.65 1.78-3.53 5.11-2.02 7.52.03.05.06.1.09.14l8.19 12.01-17.74-14.61c-2.28-1.88-5.91-1.48-8.11.89-1.81 1.95-2.09 4.62-.87 6.55.22.35.5.67.82.96l-6.85-3.64c-2.65-1.4-6.2-.37-7.95 2.3-1.22 1.88-1.23 4.07-.2 5.7.43.69 1.05 1.27 1.84 1.69l20.8 11.04-27.84-7.41c-2.96-.79-6.27.94-7.4 3.86-.63 1.63-.44 3.3.37 4.58.64 1.01 1.65 1.78 2.95 2.13l20.41 5.44-22.02-.72c-3.14-.1-6.03 2.26-6.45 5.28-.17 1.24.1 2.39.69 3.33.85 1.35 2.38 2.26 4.24 2.32l40.02 1.31-41.49 7.65c-3.15.58-5.47 3.46-5.17 6.42.08.78.33 1.49.71 2.1 1.08 1.71 3.21 2.65 5.54 2.22l8.84-1.63-4.33 1.52c-3.06 1.07-4.87 4.23-4.04 7.06.13.44.31.85.54 1.21 1.26 2 3.91 2.87 6.49 1.96l37.97-13.31-26.68 16.83c-2.76 1.74-3.73 5.15-2.17 7.63 1.56 2.47 5.06 3.06 7.82 1.32l24.22-15.28-11.47 13.18c-1.69 1.95-1.91 4.52-.73 6.39.3.47.68.9 1.16 1.26 2.36 1.79 5.98 1.27 8.1-1.17l18.62-21.39-8.28 21.67c-.62 1.63-.43 3.28.38 4.57.64 1.01 1.66 1.79 2.97 2.13 2.97.78 6.27-.95 7.39-3.87l3.91-10.22-.12 12.59c-.01.99.26 1.9.74 2.66.98 1.55 2.82 2.48 4.95 2.3 3.17-.27 5.76-2.93 5.79-5.94l.21-22.41 7.03 20.1c.12.35.28.67.47.97 1.31 2.08 4.11 2.92 6.75 1.86 3.02-1.2 4.68-4.43 3.71-7.2l-4.26-12.2 12.93 18.96c1.65 2.41 5.17 2.9 7.88 1.08 2.71-1.82 3.6-5.2 1.92-7.66l-8.83-12.95 14.09 11.61c2.28 1.88 5.91 1.48 8.11-.89 2.2-2.37 2.14-5.81-.14-7.69l-7.97-6.57 8.32 4.42c2.65 1.4 6.2.37 7.95-2.3 1.74-2.67 1.01-5.98-1.64-7.39l-9.8-5.2 10.13 2.7c2.96.79 6.27-.94 7.4-3.85 1.11-2.91-.39-5.92-3.34-6.71Z"/>
      <g id="g1">
        <path id="path15" fill="#fc5400" d="M1014.77 262.59c8.03-3.08 17.39.39 23.61 6.33 6.22 5.94 8.24 13.94 11.85 21.75 2.13 4.6 4.17 8.79 7.91 13.96 3.16 4.37 5.36 9.17 7.06 14.36 1.48 4.53 2.14 9.47 1.22 14.19-.76 3.89-3.91 6.84-7.19 8.89-3.56 2.23-7.77 2.92-10.28 2.92-1.67 0 2.71-9.6 1.6-10.85-1.7-1.91-4.13-2.99-6.47-4.02-10.93-4.78-22.07-9.62-33.94-10.83-14.48-1.47-19.13 9.95-33.65 10.96-5.83.41-11.72-1.59-14.12-2.85-4.65-2.44-8.51-5.85-8.96-14.46-.46-8.78 6.41-15.67 14.05-20.01 7.64-4.34 16.3-6.92 23.37-12.14 5.16-3.81 9.26-8.87 14.21-12.94 4.95-4.08 11.28-7.23 17.6-6.11"/>
        <path id="path16" fill="#fc91b5" d="M1058.96 341.8c-2.64 2.37-7.04 3.25-10.48 3.51-2.87.22-5.77-.05-8.54-.83-2.86-.8-5.33-2.38-7.79-4.02a211.54 211.54 0 0 1-23.69-18.27c-7.23.74-14.03 3.65-20.98 5.78-6.95 2.13-14.54 3.48-21.41 1.1-6.87-2.38-12.5-9.56-10.93-16.65.92-4.13 4.07-7.5 7.77-9.55 3.7-2.05 7.92-2.93 12.11-3.53 24.14-3.45 49.45 1.96 70.08 14.97 3.14 1.98 6.21 4.16 8.83 6.81 3.06 3.1 6.11 7 7.35 11.24.64 2.19.69 4.62-.26 6.69a8.255 8.255 0 0 1-2.06 2.75Z"/>
        <path id="path17" fill="#fc5400" d="M1002.67 461.68c-5.18-2.12-5.85-7.59-6.38-12.49-3.43-31.65-3.82-63.66 1.23-95.19.8-5.02 1.73-10.02 2.78-15 1.54-7.3 3.67-17.26 5.44-22.21 0 0 1.09 0 4.15.54 2.95.52 5.78 1.37 6.01 2.09-1.16 4.02-3.66 13.92-6.15 24.84-6.07 26.66-5.57 55.45.77 82.02 2.77 11.61 6.82 24.28 12.18 34.94-.69.13-17.54 1.48-20.03.46Z"/>
        <g id="g2">
          <path id="path18" fill="#fc5400" d="M891.24 143.75c-12.51-4.8-27.1.61-36.79 9.86-9.7 9.25-12.85 21.73-18.47 33.89-3.31 7.17-6.5 13.7-12.32 21.75-4.92 6.81-8.35 14.3-11 22.38-2.31 7.07-3.34 14.75-1.91 22.11 1.18 6.06 6.09 10.66 11.2 13.85 5.55 3.47 12.11 4.55 16.02 4.55 2.6 0-4.22-14.97-2.49-16.91 2.66-2.98 6.43-4.66 10.09-6.26 17.03-7.45 34.4-15 52.9-16.87 22.57-2.29 29.82 15.51 52.45 17.09 9.09.63 18.27-2.47 22.01-4.44 7.24-3.81 13.26-9.12 13.97-22.54.72-13.69-9.99-24.42-21.91-31.19-11.91-6.77-25.4-10.79-36.42-18.93-8.04-5.93-14.43-13.82-22.15-20.17-7.71-6.35-17.59-11.27-27.43-9.53"/>
          <path id="path19" fill="#fc91b5" d="M822.37 267.21c4.12 3.69 10.97 5.06 16.34 5.48 4.47.35 9-.08 13.31-1.29 4.46-1.25 8.31-3.71 12.15-6.26a330.52 330.52 0 0 0 36.93-28.48c11.27 1.16 21.86 5.69 32.69 9.01 10.83 3.32 22.66 5.42 33.36 1.72 10.7-3.71 19.49-14.9 17.03-25.96-1.43-6.43-6.34-11.69-12.1-14.88-5.76-3.19-12.35-4.57-18.87-5.5-37.63-5.38-77.08 3.05-109.22 23.33-4.9 3.09-9.67 6.48-13.76 10.61-4.77 4.83-9.52 10.9-11.45 17.52-.99 3.41-1.07 7.2.4 10.43.74 1.65 1.85 3.07 3.19 4.27Z"/>
          <path id="path20" fill="#fc5400" d="M868.95 490.44c24.51 5.89 52.92 1.09 55.19-34.5 3.21-50.23 1.87-120.58-6-169.72-1.25-7.83-2.7-15.62-4.34-23.38-2.4-11.38-5.71-26.9-8.48-34.62 0 0-1.69 0-6.47.84-4.59.81-9.01 2.14-9.36 3.26 1.81 6.27 5.7 21.69 9.58 38.71 9.46 41.55 2.41 114.74-7.46 156.15-1.14 4.8-10.11 18.72-11.22 20.68-10.16 17.87-15.52 41.6-11.44 42.58Z"/>
        </g>
      </g>
      <g id="g3">
        <path id="path21" fill="#fc030f" d="M499.31 610.26c-2.18.27-4.29.91-6.45 1.23-6.78 1-13.98-2.1-18.08-7.8-2.91-4.05-5.17-9.84-10.02-10.28-1.82-.16-3.6.53-5.39.92-6.62 1.41-13.88-1.95-17.46-7.89-3.58-5.95-3.34-14.07.42-19.89s10.78-9.12 17.51-8.42c4.17.44 8.08 2.26 12.18 3.15 2.43.53 4.92.71 7.4.57-1.82-.93-3.51-2.12-5-3.57-1.31-1.27-2.47-2.72-3.94-3.79-6.09-4.44-14.48-.88-21.85-1.94-6.19-.89-11.77-5.42-14.08-11.44-1.08-2.82-1.55-6-3.46-8.3-2.82-3.39-7.69-3.66-12-3.69l-17.64-.09c-2.65-.01-5.37-.04-7.84-1.05-2.47-1.01-4.65-3.24-4.88-5.98-.26-3.29 2.39-6.2 5.39-7.32 3-1.11 6.28-.88 9.46-.8 6.33.16 13.32-.65 17.64-5.44 1.21-1.34 2.15-2.94 3.39-4.25 4.29-4.51 11.11-4.68 17.21-4.92 7.83-.3 16.31-1.51 21.85-7.26 4.02-4.17 6.43-11.32 12.99-11.48 2.35-.06 4.66.67 6.84 1.61 2.23.96 4.37 2.13 6.51 3.3 2.32 1.27 4.64 2.54 7.09 3.53 2.17.88 4.57 1.72 6.89 1.51 2.67-.24 5.26-.93 7.92-1.23 8.3-.94 16.96 3.15 21.73 10.26 3.39 5.06 5.92 12.21 11.82 12.95 2.21.28 4.41-.5 6.6-.89.82-.15 1.64-.22 2.47-.25-1.83-14.1-7.57-27.65-17.21-37.69-17.92-18.67-40.69-21.13-59.78-15.46-.42.12-3.51-4.04-4.77-5.43-2.3-2.55-5.93-4.26-8.97-5.66-6.49-2.98-13.64-4.46-20.74-4.18-30.88 1.2-55.11 33.95-59.42 63.6-3.5 24.14 5.18 40.41 10.28 62.64 9.61 41.82 32.62 57.89 67.17 59.15 17.47.63 30.9-6.99 43.07-17.27-1.56-.54-3.24-.96-4.85-.76"/>
        <path id="path22" fill="#fc91b5" d="M555.1 524.92c.21-4.53.02-9.09-.57-13.6-.83.03-1.65.1-2.47.25-2.2.39-4.39 1.17-6.6.89-5.9-.74-8.42-7.88-11.82-12.95-4.77-7.11-13.43-11.2-21.73-10.26-2.66.3-5.25.99-7.92 1.23-2.33.21-4.72-.63-6.89-1.51-2.45-.99-4.77-2.26-7.09-3.53-2.14-1.17-4.27-2.34-6.51-3.3-2.18-.93-4.48-1.66-6.84-1.61-6.56.16-8.97 7.31-12.99 11.48-5.54 5.75-14.02 6.95-21.85 7.26-6.1.24-12.92.41-17.21 4.92-1.25 1.31-2.18 2.9-3.39 4.25-4.32 4.79-11.32 5.6-17.64 5.44-3.18-.08-6.46-.32-9.46.8-3 1.12-5.65 4.03-5.39 7.32.22 2.74 2.41 4.97 4.88 5.98 2.47 1.01 5.19 1.04 7.84 1.05l17.64.09c4.31.02 9.18.3 12 3.69 1.91 2.29 2.37 5.48 3.46 8.3 2.32 6.02 7.89 10.55 14.08 11.44 7.37 1.06 15.76-2.49 21.85 1.94 1.47 1.07 2.63 2.52 3.94 3.79 1.49 1.44 3.18 2.64 5 3.57-2.48.14-4.97-.04-7.4-.57-4.1-.89-8.01-2.71-12.18-3.15-6.72-.7-13.74 2.6-17.5 8.42s-4 13.94-.42 19.89c3.58 5.95 10.84 9.3 17.46 7.89 1.79-.38 3.57-1.08 5.39-.92 4.86.44 7.11 6.22 10.02 10.28 4.1 5.7 11.3 8.8 18.08 7.8 2.17-.32 4.28-.96 6.45-1.23 1.62-.2 3.3.22 4.87.76 6.15-5.2 11.98-11.07 17.84-16.91 18.3-18.26 31.81-42.45 33.07-69.19"/>
        <path id="path23" fill="#005030" d="m477.46 473.38.33-38.77c.09-8.38-.04-9.45-.04-9.45l7.94.69-3.59 47.79-4.64-.26Z"/>
        <path id="path24" fill="#bef097" d="M573.18 426.07c-5.88 8.23-11.48 16.68-16.78 25.2-3.72 5.98-7.42 12.09-12.51 16.88-12.76 12-32.42 13.65-49.49 8.92-1.03-51.68 42.95-67.37 78.78-51"/>
      </g>
      <g id="g4">
        <path id="path25" fill="#fc91b5" d="M828 530.16c.64-.92 1.37-1.76 2.15-2.55 1.41.19 2.86.22 4.36.03 17.84-2.29 27.48-24.72 27.48-24.72h-45.77c-.69-1.98-1.29-3.91-1.84-5.52-1.76-5.13-2.94-10.19-4.55-15.35-3.36-10.76-9.95-20.34-17.88-28.26-9.17-9.15-19.72-17.11-31.13-23.24-10.47-5.62-20.47-10.21-32.77-8.25-7.17 1.14-13.24 3.94-18.18 7.97-1.23.41-2.55.67-3.91.62-2.62-.1-5.04-1.32-7.21-3.64 1.43.42 3.04.62 4.71.56 3.61-.11 6.64-1.36 8.31-3.43 2.35-2.91 2.58-7.29.55-10.43-1.59-2.46-4.08-3.87-7.03-3.97-3.79-.15-7.92 1.92-10.31 5.1-.48.64-.89 1.31-1.22 2-3-5.94-1.75-10.83-1.68-11.09l-3.76-1.04c-.11.38-2.35 8.78 4.3 17.64.13 2.42 1.06 4.79 2.79 6.78 2.85 3.28 6.16 5.07 9.84 5.37-5.56 6.38-9.1 14.65-10.55 23.8-1.4 8.88-2.72 17.84.65 26.4.12.31.26.61.39.92l3.98 73.52 7.79-.42-3.26-60.29c2.5 2.65 5.29 5.04 8.25 7.09.93.65 1.9 1.27 2.87 1.88l2.8 51.73 7.79-.42-2.54-46.88c10.31 5.03 21.87 8.56 32.34 11.44.19.05.39.12.6.18l-1.45 47.9 7.79.24 1.35-44.74c5.04 2.62 10.51 5.97 14.07 8.19l2.23 41.13 7.78-.42-1.78-32.95c1.43 2.01 2.8 4.09 4.23 5.97 3.37 4.46 6.82 8.87 10.22 13.3 3.66 4.75 4.38 7.63 9.32 10.88-.84-3.63-8.27-25.39-8-25.11.11.11 16.12 25.87 17.18 25.78 3.74-.12 10.35.39 13.4-2.09.79-.64 2.02-1.93 1.99-2.98-.03-1.06-1.12-1.82-2.1-2.02-3.55-.72-5.69-.87-6.89-3.85-2.24-7.21-2.78-14.99-1.49-22.45.61-3.66 1.7-7.3 3.79-10.31Zm-131.46-108.9c.14-1.32.66-2.64 1.56-3.84 1.6-2.14 4.55-3.64 7.05-3.54 1.68.06 2.99.8 3.89 2.19 1.12 1.74.99 4.26-.31 5.87-.93 1.15-3 1.91-5.4 1.99-2.55.07-5-.66-6.08-1.84l-.71-.83Z"/>
        <path id="path26" fill="#004f30" d="M802.47 537.07a2.405 2.405 0 1 0 0-4.81 2.41 2.41 0 0 0-2.41 2.4 2.418 2.418 0 0 0 2.41 2.41"/>
        <path id="path27" fill="#fc91b5" d="m983.62 562.61 7.78-.42-3.45-63.71c.67-1.23 1.06-2.65 1.06-4.31 0-12.42-.49-25.62-2.95-34.96-.29-1.46-.73-2.9-1.38-4.31-2.25-4.9-7.03-9.35-17.08-12.08-23.45-6.38-63 9.75-68.17 11.93-.61-.53-5.82-5.11-11.97-10.21 4.05-.45 7.91-1.87 11.02-4.87 12.95-12.47 7.32-36.23 7.32-36.23l-36.83 27.35c-.27-.15-.53-.28-.77-.39.07-3.6-.57-7.33-2.48-10.72-6.84-12.12-29.09-6.99-29.09-6.99l15.86 21.24c-.04.49-.05.98 0 1.48a63.81 63.81 0 0 1-12.53 1.55c-1 .02-5.1-.04-5.75-.82-.45-.55-.56-1.34-1-1.89-.86-1.51-4.06-2.27-5.36-.65-2.25 2.82-3.29 8.1-2.63 11.63.67 3.56 30.84 7.69 35.58 6.89.23-.04-29.3 7.48-28.64 8.59 3.32 1.25 29.58 20.98 36.77 29.71 5.73 6.96 22.02 25.93 25.82 30.35l2.62 48.37 7.78-.42-2.31-42.64c5.51 2.52 11.71 3.48 18.02 3.33l2.15 39.74 7.78-.42-2.17-40.03c15.76-2.47 30.45-10.71 34.28-17.5l2.78 51.42 7.78-.42-2.99-55.27c3.13-.67 6.75-1.44 9.95-2.7l3.2 58.38Z"/>
        <path id="path28" fill="#004f30" d="M867.89 445.2a2.405 2.405 0 1 0 0-4.81 2.41 2.41 0 0 0-2.41 2.4 2.418 2.418 0 0 0 2.41 2.41"/>
      </g>
    </g>
  </g>
</svg>